<svg xmlns="http://www.w3.org/2000/svg" xmlns:xlink="http://www.w3.org/1999/xlink" width="1366" zoomAndPan="magnify" viewBox="0 0 1024.5 576" height="768" preserveAspectRatio="xMidYMid meet" version="1.0"><defs><clipPath id="8ed5a3eea6"><path d="M 249.570312 25.570312 L 774.316406 25.570312 L 774.316406 550.316406 L 249.570312 550.316406 Z M 249.570312 25.570312 " clip-rule="nonzero"/></clipPath></defs><g clip-path="url(#8ed5a3eea6)"><path fill="#000000" d="M 511.867188 25.523438 C 656.746094 25.523438 774.191406 142.964844 774.191406 287.84375 C 774.191406 432.722656 656.746094 550.164062 511.867188 550.164062 C 366.992188 550.164062 249.546875 432.722656 249.546875 287.84375 C 249.546875 142.964844 366.992188 25.523438 511.867188 25.523438 Z M 442.859375 251.230469 C 442.460938 224.96875 502.566406 210.554688 529.824219 217.761719 C 598.910156 236.042969 498.898438 396.78125 516.207031 420.550781 C 525.835938 433.769531 569.503906 423.34375 569.503906 435.367188 C 569.503906 447.386719 539.851562 478.636719 489.347656 468.238281 C 438.84375 457.8125 452.484375 422.546875 459.292969 394.089844 C 466.101562 365.632812 495.359375 287.070312 495.359375 273.453125 C 495.359375 230.707031 442.183594 262.480469 442.832031 251.207031 Z M 541.371094 105.332031 C 563.171875 105.332031 580.851562 123.011719 580.851562 144.8125 C 580.851562 166.609375 563.171875 184.292969 541.371094 184.292969 C 519.574219 184.292969 501.890625 166.609375 501.890625 144.8125 C 501.890625 123.011719 519.574219 105.332031 541.371094 105.332031 Z M 541.371094 105.332031 " fill-opacity="1" fill-rule="evenodd"/></g></svg>