<svg xmlns="http://www.w3.org/2000/svg" xmlns:xlink="http://www.w3.org/1999/xlink" width="1366" zoomAndPan="magnify" viewBox="0 0 1024.5 576" height="768" preserveAspectRatio="xMidYMid meet" version="1.0"><defs><clipPath id="b8130b4287"><path d="M 272 35.753906 L 750 35.753906 L 750 449 L 272 449 Z M 272 35.753906 " clip-rule="nonzero"/></clipPath><clipPath id="04161a73ca"><path d="M 442 471 L 511 471 L 511 540.257812 L 442 540.257812 Z M 442 471 " clip-rule="nonzero"/></clipPath><clipPath id="4a20008e64"><path d="M 602 471 L 672 471 L 672 540.257812 L 602 540.257812 Z M 602 471 " clip-rule="nonzero"/></clipPath></defs><g clip-path="url(#b8130b4287)"><path fill="#000000" d="M 683.59375 402.664062 L 446.15625 402.664062 C 445.476562 402.6875 444.800781 402.675781 444.125 402.632812 C 443.449219 402.585938 442.777344 402.507812 442.109375 402.394531 C 441.441406 402.28125 440.78125 402.136719 440.125 401.957031 C 439.472656 401.777344 438.832031 401.566406 438.199219 401.324219 C 437.566406 401.082031 436.945312 400.804688 436.34375 400.5 C 435.738281 400.195312 435.148438 399.859375 434.578125 399.496094 C 434.007812 399.132812 433.457031 398.738281 432.925781 398.320312 C 432.390625 397.898438 431.882812 397.453125 431.394531 396.984375 C 430.910156 396.511719 430.445312 396.019531 430.007812 395.5 C 429.570312 394.984375 429.160156 394.445312 428.777344 393.886719 C 428.394531 393.328125 428.039062 392.753906 427.714844 392.160156 C 427.386719 391.566406 427.09375 390.957031 426.828125 390.332031 C 426.5625 389.710938 426.332031 389.074219 426.128906 388.425781 C 425.929688 387.78125 425.761719 387.125 425.628906 386.460938 C 425.492188 385.796875 425.390625 385.128906 425.324219 384.453125 C 425.253906 383.78125 425.222656 383.105469 425.222656 382.425781 C 425.222656 381.75 425.253906 381.074219 425.324219 380.398438 C 425.390625 379.726562 425.492188 379.058594 425.628906 378.394531 C 425.761719 377.730469 425.929688 377.074219 426.128906 376.425781 C 426.332031 375.78125 426.5625 375.144531 426.828125 374.519531 C 427.09375 373.898438 427.386719 373.289062 427.714844 372.695312 C 428.039062 372.101562 428.394531 371.523438 428.777344 370.964844 C 429.160156 370.40625 429.570312 369.871094 430.007812 369.351562 C 430.445312 368.835938 430.910156 368.339844 431.394531 367.871094 C 431.882812 367.398438 432.390625 366.953125 432.925781 366.535156 C 433.457031 366.113281 434.007812 365.722656 434.578125 365.359375 C 435.148438 364.992188 435.738281 364.660156 436.34375 364.351562 C 436.945312 364.046875 437.566406 363.773438 438.199219 363.53125 C 438.832031 363.285156 439.472656 363.074219 440.125 362.894531 C 440.78125 362.71875 441.441406 362.570312 442.109375 362.460938 C 442.777344 362.347656 443.449219 362.269531 444.125 362.222656 C 444.800781 362.179688 445.476562 362.167969 446.15625 362.1875 L 683.59375 362.1875 C 684.890625 362.191406 686.175781 362.082031 687.453125 361.867188 C 688.730469 361.648438 689.980469 361.324219 691.207031 360.898438 C 692.429688 360.46875 693.605469 359.9375 694.738281 359.308594 C 695.871094 358.679688 696.945312 357.960938 697.957031 357.152344 C 698.96875 356.339844 699.902344 355.453125 700.765625 354.484375 C 701.625 353.515625 702.398438 352.480469 703.082031 351.378906 C 703.769531 350.28125 704.355469 349.128906 704.84375 347.929688 C 705.335938 346.730469 705.722656 345.5 706.003906 344.234375 L 749.191406 149.976562 C 749.375 149.140625 749.515625 148.296875 749.605469 147.449219 C 749.695312 146.597656 749.738281 145.742188 749.734375 144.886719 C 749.726562 144.03125 749.675781 143.179688 749.574219 142.328125 C 749.472656 141.480469 749.328125 140.636719 749.132812 139.804688 C 748.9375 138.972656 748.695312 138.152344 748.410156 137.347656 C 748.125 136.539062 747.792969 135.753906 747.417969 134.984375 C 747.042969 134.214844 746.625 133.46875 746.167969 132.746094 C 745.710938 132.023438 745.214844 131.328125 744.675781 130.660156 C 744.140625 129.992188 743.570312 129.359375 742.960938 128.753906 C 742.355469 128.152344 741.714844 127.585938 741.046875 127.054688 C 740.375 126.523438 739.675781 126.027344 738.949219 125.574219 C 738.226562 125.121094 737.476562 124.710938 736.703125 124.339844 C 735.933594 123.972656 735.144531 123.644531 734.335938 123.363281 C 733.527344 123.082031 732.703125 122.847656 731.871094 122.660156 C 731.035156 122.46875 730.191406 122.328125 729.34375 122.234375 C 728.492188 122.136719 727.640625 122.089844 726.78125 122.089844 L 402.964844 122.089844 C 401.320312 122.085938 399.691406 122.253906 398.082031 122.597656 L 382.164062 53.523438 C 381.871094 52.269531 381.480469 51.046875 380.984375 49.859375 C 380.488281 48.671875 379.898438 47.53125 379.210938 46.445312 C 378.523438 45.355469 377.75 44.332031 376.886719 43.371094 C 376.027344 42.414062 375.09375 41.535156 374.085938 40.734375 C 373.078125 39.929688 372.007812 39.21875 370.882812 38.597656 C 369.753906 37.976562 368.582031 37.453125 367.363281 37.03125 C 366.148438 36.605469 364.90625 36.289062 363.636719 36.074219 C 362.367188 35.859375 361.085938 35.75 359.800781 35.753906 L 295.027344 35.753906 C 294.277344 35.753906 293.527344 35.789062 292.777344 35.863281 C 292.03125 35.9375 291.289062 36.046875 290.550781 36.191406 C 289.816406 36.339844 289.085938 36.523438 288.367188 36.738281 C 287.648438 36.957031 286.941406 37.210938 286.25 37.5 C 285.554688 37.785156 284.875 38.105469 284.214844 38.460938 C 283.550781 38.8125 282.910156 39.199219 282.285156 39.617188 C 281.660156 40.035156 281.054688 40.480469 280.476562 40.957031 C 279.894531 41.433594 279.339844 41.9375 278.808594 42.46875 C 278.277344 43 277.773438 43.554688 277.296875 44.136719 C 276.820312 44.71875 276.371094 45.320312 275.957031 45.945312 C 275.539062 46.570312 275.152344 47.210938 274.796875 47.875 C 274.445312 48.535156 274.125 49.214844 273.835938 49.910156 C 273.546875 50.601562 273.296875 51.308594 273.078125 52.027344 C 272.859375 52.746094 272.675781 53.472656 272.53125 54.210938 C 272.382812 54.949219 272.273438 55.6875 272.199219 56.4375 C 272.128906 57.183594 272.089844 57.933594 272.089844 58.683594 C 272.089844 59.4375 272.128906 60.183594 272.199219 60.933594 C 272.273438 61.679688 272.382812 62.421875 272.53125 63.160156 C 272.675781 63.894531 272.859375 64.621094 273.078125 65.339844 C 273.296875 66.058594 273.546875 66.765625 273.835938 67.460938 C 274.125 68.152344 274.445312 68.832031 274.796875 69.496094 C 275.152344 70.15625 275.539062 70.800781 275.957031 71.425781 C 276.371094 72.050781 276.820312 72.652344 277.296875 73.230469 C 277.773438 73.8125 278.277344 74.367188 278.808594 74.898438 C 279.339844 75.429688 279.894531 75.933594 280.476562 76.410156 C 281.054688 76.886719 281.660156 77.335938 282.285156 77.75 C 282.910156 78.167969 283.550781 78.554688 284.214844 78.910156 C 284.875 79.261719 285.554688 79.582031 286.25 79.871094 C 286.941406 80.160156 287.648438 80.410156 288.367188 80.628906 C 289.085938 80.847656 289.816406 81.03125 290.550781 81.175781 C 291.289062 81.324219 292.03125 81.433594 292.777344 81.507812 C 293.527344 81.578125 294.277344 81.617188 295.027344 81.617188 L 341.542969 81.617188 L 400.074219 335.175781 C 398.90625 336.3125 397.777344 337.492188 396.695312 338.710938 C 395.609375 339.929688 394.574219 341.191406 393.582031 342.488281 C 392.59375 343.785156 391.652344 345.117188 390.761719 346.484375 C 389.867188 347.851562 389.027344 349.246094 388.242188 350.675781 C 387.453125 352.105469 386.71875 353.5625 386.039062 355.046875 C 385.359375 356.53125 384.738281 358.035156 384.167969 359.566406 C 383.601562 361.097656 383.089844 362.644531 382.636719 364.210938 C 382.183594 365.78125 381.789062 367.363281 381.453125 368.960938 C 381.121094 370.558594 380.84375 372.164062 380.625 373.78125 C 380.410156 375.398438 380.253906 377.023438 380.160156 378.652344 C 380.0625 380.28125 380.027344 381.910156 380.050781 383.542969 C 380.078125 385.171875 380.164062 386.800781 380.308594 388.425781 C 380.453125 390.050781 380.660156 391.671875 380.925781 393.28125 C 381.191406 394.890625 381.515625 396.488281 381.902344 398.074219 C 382.285156 399.660156 382.726562 401.230469 383.230469 402.78125 C 383.730469 404.335938 384.289062 405.867188 384.902344 407.378906 C 385.515625 408.890625 386.1875 410.378906 386.910156 411.839844 C 387.636719 413.300781 388.414062 414.734375 389.246094 416.140625 C 390.078125 417.542969 390.957031 418.917969 391.890625 420.253906 C 392.824219 421.59375 393.804688 422.898438 394.835938 424.164062 C 395.863281 425.429688 396.941406 426.65625 398.0625 427.84375 C 399.179688 429.027344 400.34375 430.171875 401.550781 431.273438 C 402.753906 432.371094 404 433.425781 405.28125 434.433594 C 406.566406 435.441406 407.886719 436.402344 409.242188 437.3125 C 410.59375 438.222656 411.980469 439.078125 413.398438 439.886719 C 414.820312 440.695312 416.265625 441.449219 417.738281 442.148438 C 419.214844 442.847656 420.710938 443.492188 422.234375 444.082031 C 423.757812 444.671875 425.296875 445.203125 426.859375 445.675781 C 428.421875 446.152344 430 446.566406 431.589844 446.925781 C 433.183594 447.28125 434.785156 447.582031 436.402344 447.820312 C 438.015625 448.058594 439.636719 448.234375 441.265625 448.355469 C 442.894531 448.472656 444.523438 448.53125 446.15625 448.527344 L 683.59375 448.527344 C 684.34375 448.527344 685.09375 448.492188 685.839844 448.417969 C 686.589844 448.34375 687.332031 448.234375 688.066406 448.085938 C 688.804688 447.941406 689.53125 447.757812 690.25 447.539062 C 690.96875 447.324219 691.675781 447.070312 692.371094 446.78125 C 693.066406 446.496094 693.742188 446.175781 694.40625 445.820312 C 695.066406 445.464844 695.710938 445.082031 696.335938 444.664062 C 696.960938 444.246094 697.5625 443.800781 698.144531 443.324219 C 698.726562 442.847656 699.28125 442.34375 699.8125 441.8125 C 700.34375 441.28125 700.847656 440.726562 701.324219 440.144531 C 701.800781 439.5625 702.246094 438.960938 702.664062 438.335938 C 703.082031 437.710938 703.46875 437.070312 703.820312 436.40625 C 704.175781 435.742188 704.496094 435.066406 704.785156 434.371094 C 705.070312 433.679688 705.324219 432.972656 705.542969 432.253906 C 705.761719 431.535156 705.941406 430.808594 706.089844 430.070312 C 706.234375 429.332031 706.347656 428.589844 706.417969 427.84375 C 706.492188 427.097656 706.53125 426.347656 706.53125 425.597656 C 706.53125 424.84375 706.492188 424.097656 706.417969 423.347656 C 706.347656 422.601562 706.234375 421.859375 706.089844 421.121094 C 705.941406 420.386719 705.761719 419.660156 705.542969 418.941406 C 705.324219 418.222656 705.070312 417.515625 704.785156 416.820312 C 704.496094 416.125 704.175781 415.449219 703.820312 414.785156 C 703.46875 414.125 703.082031 413.480469 702.664062 412.855469 C 702.246094 412.230469 701.800781 411.628906 701.324219 411.046875 C 700.847656 410.46875 700.34375 409.910156 699.8125 409.382812 C 699.28125 408.851562 698.726562 408.347656 698.144531 407.871094 C 697.5625 407.394531 696.960938 406.945312 696.335938 406.527344 C 695.710938 406.113281 695.066406 405.726562 694.40625 405.371094 C 693.742188 405.019531 693.066406 404.699219 692.371094 404.410156 C 691.675781 404.121094 690.96875 403.871094 690.25 403.652344 C 689.53125 403.433594 688.804688 403.25 688.066406 403.105469 C 687.332031 402.957031 686.589844 402.847656 685.839844 402.773438 C 685.09375 402.703125 684.34375 402.664062 683.59375 402.664062 Z M 683.59375 402.664062 " fill-opacity="1" fill-rule="nonzero"/></g><g clip-path="url(#04161a73ca)"><path fill="#000000" d="M 510.90625 505.859375 C 510.90625 506.984375 510.847656 508.109375 510.738281 509.230469 C 510.628906 510.351562 510.464844 511.464844 510.242188 512.570312 C 510.023438 513.675781 509.75 514.765625 509.421875 515.84375 C 509.097656 516.921875 508.71875 517.980469 508.285156 519.023438 C 507.855469 520.0625 507.375 521.078125 506.84375 522.074219 C 506.3125 523.066406 505.734375 524.03125 505.105469 524.96875 C 504.480469 525.90625 503.808594 526.808594 503.09375 527.679688 C 502.378906 528.550781 501.625 529.382812 500.828125 530.179688 C 500.03125 530.976562 499.195312 531.734375 498.328125 532.449219 C 497.457031 533.164062 496.550781 533.832031 495.613281 534.460938 C 494.675781 535.085938 493.710938 535.664062 492.71875 536.195312 C 491.722656 536.726562 490.707031 537.207031 489.667969 537.636719 C 488.625 538.070312 487.566406 538.449219 486.488281 538.773438 C 485.410156 539.101562 484.316406 539.375 483.210938 539.59375 C 482.105469 539.816406 480.992188 539.980469 479.871094 540.089844 C 478.75 540.199219 477.625 540.257812 476.5 540.257812 C 475.375 540.257812 474.25 540.199219 473.128906 540.089844 C 472.007812 539.980469 470.894531 539.816406 469.789062 539.59375 C 468.683594 539.375 467.589844 539.101562 466.511719 538.773438 C 465.433594 538.449219 464.375 538.070312 463.332031 537.636719 C 462.292969 537.207031 461.277344 536.726562 460.28125 536.195312 C 459.289062 535.664062 458.324219 535.085938 457.386719 534.460938 C 456.449219 533.832031 455.546875 533.164062 454.675781 532.449219 C 453.804688 531.734375 452.96875 530.976562 452.171875 530.179688 C 451.375 529.382812 450.621094 528.550781 449.90625 527.679688 C 449.191406 526.808594 448.519531 525.90625 447.894531 524.96875 C 447.265625 524.03125 446.6875 523.066406 446.15625 522.074219 C 445.625 521.078125 445.144531 520.0625 444.714844 519.023438 C 444.28125 517.980469 443.902344 516.921875 443.578125 515.84375 C 443.25 514.765625 442.976562 513.675781 442.757812 512.570312 C 442.535156 511.464844 442.371094 510.351562 442.261719 509.230469 C 442.152344 508.109375 442.09375 506.984375 442.09375 505.859375 C 442.09375 504.730469 442.152344 503.609375 442.261719 502.488281 C 442.371094 501.367188 442.535156 500.253906 442.757812 499.148438 C 442.976562 498.042969 443.25 496.949219 443.578125 495.875 C 443.902344 494.796875 444.28125 493.734375 444.714844 492.695312 C 445.144531 491.652344 445.625 490.636719 446.15625 489.644531 C 446.6875 488.648438 447.265625 487.683594 447.894531 486.746094 C 448.519531 485.8125 449.191406 484.90625 449.90625 484.035156 C 450.621094 483.164062 451.375 482.332031 452.171875 481.535156 C 452.96875 480.738281 453.804688 479.984375 454.675781 479.269531 C 455.546875 478.554688 456.449219 477.882812 457.386719 477.257812 C 458.324219 476.632812 459.289062 476.054688 460.28125 475.523438 C 461.277344 474.992188 462.292969 474.511719 463.332031 474.078125 C 464.375 473.648438 465.433594 473.269531 466.511719 472.941406 C 467.589844 472.613281 468.683594 472.339844 469.789062 472.121094 C 470.894531 471.902344 472.007812 471.738281 473.128906 471.625 C 474.25 471.515625 475.375 471.460938 476.5 471.460938 C 477.625 471.460938 478.75 471.515625 479.871094 471.625 C 480.992188 471.738281 482.105469 471.902344 483.210938 472.121094 C 484.316406 472.339844 485.410156 472.613281 486.488281 472.941406 C 487.566406 473.269531 488.625 473.648438 489.667969 474.078125 C 490.707031 474.511719 491.722656 474.992188 492.71875 475.523438 C 493.710938 476.054688 494.675781 476.632812 495.613281 477.257812 C 496.550781 477.882812 497.457031 478.554688 498.324219 479.269531 C 499.195312 479.984375 500.03125 480.738281 500.828125 481.535156 C 501.625 482.332031 502.378906 483.164062 503.09375 484.035156 C 503.808594 484.90625 504.480469 485.8125 505.105469 486.746094 C 505.734375 487.683594 506.3125 488.648438 506.84375 489.644531 C 507.375 490.636719 507.855469 491.652344 508.285156 492.695312 C 508.71875 493.734375 509.097656 494.796875 509.421875 495.875 C 509.75 496.949219 510.023438 498.042969 510.242188 499.148438 C 510.464844 500.253906 510.628906 501.367188 510.738281 502.488281 C 510.847656 503.609375 510.90625 504.730469 510.90625 505.859375 Z M 510.90625 505.859375 " fill-opacity="1" fill-rule="nonzero"/></g><g clip-path="url(#4a20008e64)"><path fill="#000000" d="M 671.460938 505.859375 C 671.460938 506.984375 671.40625 508.109375 671.292969 509.230469 C 671.183594 510.351562 671.019531 511.464844 670.800781 512.570312 C 670.578125 513.675781 670.304688 514.765625 669.980469 515.84375 C 669.652344 516.921875 669.273438 517.980469 668.839844 519.023438 C 668.410156 520.0625 667.929688 521.078125 667.398438 522.074219 C 666.867188 523.066406 666.289062 524.03125 665.660156 524.96875 C 665.035156 525.90625 664.367188 526.808594 663.652344 527.679688 C 662.9375 528.550781 662.179688 529.382812 661.382812 530.179688 C 660.585938 530.976562 659.753906 531.734375 658.882812 532.449219 C 658.011719 533.164062 657.105469 533.832031 656.167969 534.460938 C 655.234375 535.085938 654.265625 535.664062 653.273438 536.195312 C 652.28125 536.726562 651.261719 537.207031 650.222656 537.636719 C 649.179688 538.070312 648.121094 538.449219 647.042969 538.773438 C 645.964844 539.101562 644.871094 539.375 643.765625 539.59375 C 642.664062 539.816406 641.550781 539.980469 640.425781 540.089844 C 639.304688 540.199219 638.183594 540.257812 637.054688 540.257812 C 635.929688 540.257812 634.804688 540.199219 633.683594 540.089844 C 632.5625 539.980469 631.449219 539.816406 630.34375 539.59375 C 629.238281 539.375 628.148438 539.101562 627.066406 538.773438 C 625.988281 538.449219 624.929688 538.070312 623.890625 537.636719 C 622.847656 537.207031 621.832031 536.726562 620.835938 536.195312 C 619.84375 535.664062 618.878906 535.085938 617.941406 534.460938 C 617.003906 533.832031 616.101562 533.164062 615.230469 532.449219 C 614.359375 531.734375 613.523438 530.976562 612.726562 530.179688 C 611.929688 529.382812 611.175781 528.550781 610.460938 527.679688 C 609.746094 526.808594 609.074219 525.90625 608.449219 524.96875 C 607.824219 524.03125 607.246094 523.066406 606.714844 522.074219 C 606.183594 521.078125 605.699219 520.0625 605.269531 519.023438 C 604.839844 517.980469 604.460938 516.921875 604.132812 515.84375 C 603.804688 514.765625 603.53125 513.675781 603.3125 512.570312 C 603.09375 511.464844 602.925781 510.351562 602.816406 509.230469 C 602.707031 508.109375 602.652344 506.984375 602.652344 505.859375 C 602.652344 504.730469 602.707031 503.609375 602.816406 502.488281 C 602.925781 501.367188 603.09375 500.253906 603.3125 499.148438 C 603.53125 498.042969 603.804688 496.949219 604.132812 495.875 C 604.460938 494.796875 604.839844 493.734375 605.269531 492.695312 C 605.699219 491.652344 606.183594 490.636719 606.714844 489.644531 C 607.246094 488.648438 607.824219 487.683594 608.449219 486.746094 C 609.074219 485.8125 609.746094 484.90625 610.460938 484.035156 C 611.175781 483.164062 611.929688 482.332031 612.726562 481.535156 C 613.523438 480.738281 614.359375 479.984375 615.230469 479.269531 C 616.101562 478.554688 617.003906 477.882812 617.941406 477.257812 C 618.878906 476.632812 619.84375 476.054688 620.835938 475.523438 C 621.832031 474.992188 622.847656 474.511719 623.890625 474.078125 C 624.929688 473.648438 625.988281 473.269531 627.066406 472.941406 C 628.148438 472.613281 629.238281 472.339844 630.34375 472.121094 C 631.449219 471.902344 632.5625 471.738281 633.683594 471.625 C 634.804688 471.515625 635.929688 471.460938 637.054688 471.460938 C 638.183594 471.460938 639.304688 471.515625 640.425781 471.625 C 641.550781 471.738281 642.664062 471.902344 643.765625 472.121094 C 644.871094 472.339844 645.964844 472.613281 647.042969 472.941406 C 648.121094 473.269531 649.179688 473.648438 650.222656 474.078125 C 651.261719 474.511719 652.28125 474.992188 653.273438 475.523438 C 654.265625 476.054688 655.234375 476.632812 656.167969 477.257812 C 657.105469 477.882812 658.011719 478.554688 658.882812 479.269531 C 659.753906 479.984375 660.585938 480.738281 661.382812 481.535156 C 662.179688 482.332031 662.9375 483.164062 663.652344 484.035156 C 664.367188 484.90625 665.035156 485.8125 665.660156 486.746094 C 666.289062 487.683594 666.867188 488.648438 667.398438 489.644531 C 667.929688 490.636719 668.410156 491.652344 668.839844 492.695312 C 669.273438 493.734375 669.652344 494.796875 669.980469 495.875 C 670.304688 496.949219 670.578125 498.042969 670.800781 499.148438 C 671.019531 500.253906 671.183594 501.367188 671.292969 502.488281 C 671.40625 503.609375 671.460938 504.730469 671.460938 505.859375 Z M 671.460938 505.859375 " fill-opacity="1" fill-rule="nonzero"/></g></svg>