<svg xmlns="http://www.w3.org/2000/svg" xmlns:xlink="http://www.w3.org/1999/xlink" width="1366" zoomAndPan="magnify" viewBox="0 0 1024.5 576" height="768" preserveAspectRatio="xMidYMid meet" version="1.0"><defs><clipPath id="6b2bca1058"><path d="M 247.8125 23.8125 L 776.304688 23.8125 L 776.304688 552.304688 L 247.8125 552.304688 Z M 247.8125 23.8125 " clip-rule="nonzero"/></clipPath></defs><path fill="#100f0d" d="M 622.464844 192.65625 C 621.613281 189.574219 619.546875 187.066406 616.601562 185.527344 C 617.234375 178.617188 616.300781 170.140625 614.703125 163.148438 C 613.300781 157.421875 611.152344 151.007812 607.847656 144.292969 C 604.378906 137.714844 600.085938 130.667969 594.058594 124.199219 C 588.332031 117.484375 580.957031 111.398438 572.617188 106.003906 C 500.003906 59.953125 399.726562 114.429688 407.515625 185.554688 C 404.597656 187.066406 402.535156 189.601562 401.710938 192.65625 C 384.503906 192.957031 370.6875 205.730469 370.6875 221.503906 C 370.6875 237.273438 384.503906 250.074219 401.710938 250.375 C 403.058594 255.359375 407.765625 259.128906 413.628906 259.128906 C 420.59375 259.128906 426.207031 253.984375 426.207031 247.625 L 426.207031 195.410156 C 426.207031 191.773438 424.28125 188.691406 421.445312 186.574219 C 424.582031 168.597656 433.914062 149.605469 447.015625 137.824219 C 466.257812 119.078125 499.644531 108.234375 536.335938 116.410156 C 550.429688 120.621094 564.332031 127.695312 575.917969 139.007812 C 588.800781 150.597656 599.261719 167.964844 602.675781 186.601562 C 595.242188 192.105469 597.910156 196.867188 597.910156 247.625 C 597.910156 251.589844 600.25 254.945312 603.609375 257.011719 L 603.609375 261.414062 C 603.609375 264.222656 602.8125 266.976562 601.296875 269.34375 C 584.863281 294.914062 583.792969 297.527344 558.992188 305.457031 C 551.199219 307.960938 542.394531 309.035156 533.472656 311.207031 C 525.300781 303.089844 510.792969 308.429688 510.792969 319.300781 C 510.792969 332.980469 532.179688 336.121094 536.335938 322.410156 C 542.335938 320.953125 548.53125 320.097656 554.367188 318.308594 C 586.351562 308.59375 596.8125 302.8125 613.738281 270.5 C 615.335938 267.441406 616.1875 264.058594 616.1875 260.589844 L 616.1875 257.726562 C 619.328125 256.238281 621.585938 253.597656 622.464844 250.375 C 639.613281 250.046875 653.429688 237.273438 653.429688 221.503906 C 653.429688 205.757812 639.613281 192.984375 622.464844 192.65625 " fill-opacity="1" fill-rule="nonzero"/><path fill="#100f0d" d="M 512.113281 379.335938 C 522.382812 364.910156 531.300781 352.523438 540.082031 340 C 550.347656 325.355469 560.699219 320.621094 576.910156 326.101562 C 597.527344 333.0625 617.949219 340.824219 637.878906 349.496094 C 655.027344 356.984375 664.660156 370.304688 663.589844 390.070312 C 663.039062 399.8125 663.589844 409.585938 663.449219 419.328125 C 663.09375 446.195312 650.871094 458.691406 624.253906 458.828125 C 589.902344 459.019531 555.550781 458.882812 521.199219 458.882812 C 481.257812 458.882812 441.347656 458.992188 401.40625 458.828125 C 372.863281 458.71875 360.832031 446.523438 360.667969 418.117188 C 360.613281 408.84375 361.136719 399.511719 360.558594 390.261719 C 359.292969 369.699219 369.890625 356.460938 387.367188 348.917969 C 407.324219 340.304688 427.859375 332.789062 448.503906 325.960938 C 466.121094 320.097656 471.570312 322.714844 482.46875 337.992188 C 491.855469 351.148438 501.296875 364.277344 512.113281 379.335938 " fill-opacity="1" fill-rule="nonzero"/><path fill="#100f0d" d="M 584.863281 207.878906 C 582.992188 232.101562 575.339844 263.09375 549.933594 286.929688 C 528.382812 307.136719 495.515625 307.65625 474.320312 286.957031 C 444.925781 258.25 435.675781 221.777344 440.21875 182.417969 C 442.613281 161.800781 455.164062 145.585938 476.277344 138.679688 C 507.628906 128.410156 537.988281 127.421875 565.625 149.332031 C 581.753906 162.128906 585.441406 179.691406 584.863281 207.878906 " fill-opacity="1" fill-rule="nonzero"/><g clip-path="url(#6b2bca1058)"><path fill="#100f0d" d="M 512.058594 531.605469 C 377.542969 531.605469 268.511719 422.578125 268.511719 288.058594 C 268.511719 153.542969 377.542969 44.511719 512.058594 44.511719 C 646.578125 44.511719 755.605469 153.542969 755.605469 288.058594 C 755.605469 422.578125 646.578125 531.605469 512.058594 531.605469 Z M 512.058594 23.8125 C 366.117188 23.8125 247.8125 142.117188 247.8125 288.058594 C 247.8125 434 366.117188 552.304688 512.058594 552.304688 C 658 552.304688 776.304688 434 776.304688 288.058594 C 776.304688 142.117188 658 23.8125 512.058594 23.8125 " fill-opacity="1" fill-rule="nonzero"/></g></svg>