<svg xmlns="http://www.w3.org/2000/svg" xmlns:xlink="http://www.w3.org/1999/xlink" width="1366" zoomAndPan="magnify" viewBox="0 0 1024.5 576" height="768" preserveAspectRatio="xMidYMid meet" version="1.0"><defs><clipPath id="1c4f522398"><path d="M 259.527344 36 L 764.78125 36 L 764.78125 540 L 259.527344 540 Z M 259.527344 36 " clip-rule="nonzero"/></clipPath></defs><g clip-path="url(#1c4f522398)"><path fill="#000000" d="M 701 36.511719 L 322.851562 36.511719 C 288.097656 36.511719 259.527344 65.042969 259.527344 99.636719 L 259.527344 476.050781 C 259.527344 510.648438 288.097656 539.476562 322.851562 539.476562 L 511.007812 539.476562 L 511.007812 365.90625 L 448.878906 365.90625 L 448.878906 288.980469 L 511.007812 288.980469 L 511.007812 225.109375 C 511.007812 173.128906 554.25 132.175781 606.464844 132.175781 L 670.773438 132.175781 L 670.773438 210.085938 L 637.976562 210.085938 C 620.585938 210.085938 606.671875 207.792969 606.671875 225.109375 L 606.671875 288.980469 L 685.25 288.980469 L 653.734375 365.90625 L 606.671875 365.90625 L 606.671875 539.476562 L 701 539.476562 C 735.761719 539.476562 764.464844 510.648438 764.464844 476.050781 L 764.464844 99.636719 C 764.464844 65.042969 735.761719 36.511719 701 36.511719 Z M 701 36.511719 " fill-opacity="1" fill-rule="nonzero"/></g></svg>