<svg xmlns="http://www.w3.org/2000/svg" xmlns:xlink="http://www.w3.org/1999/xlink" width="1366" zoomAndPan="magnify" viewBox="0 0 1024.5 576" height="768" preserveAspectRatio="xMidYMid meet" version="1.0"><defs><clipPath id="1e9a2dc293"><path d="M 244.882812 20.882812 L 779.375 20.882812 L 779.375 555.375 L 244.882812 555.375 Z M 244.882812 20.882812 " clip-rule="nonzero"/></clipPath></defs><g clip-path="url(#1e9a2dc293)"><path fill="#000000" d="M 512.128906 534.070312 C 376.519531 534.070312 266.1875 423.738281 266.1875 288.128906 C 266.1875 152.519531 376.519531 42.1875 512.128906 42.1875 C 647.738281 42.1875 758.070312 152.519531 758.070312 288.128906 C 758.070312 423.738281 647.738281 534.070312 512.128906 534.070312 Z M 512.128906 20.882812 C 364.769531 20.882812 244.882812 140.769531 244.882812 288.128906 C 244.882812 435.488281 364.769531 555.375 512.128906 555.375 C 659.488281 555.375 779.375 435.488281 779.375 288.128906 C 779.375 140.769531 659.488281 20.882812 512.128906 20.882812 " fill-opacity="1" fill-rule="nonzero"/></g><path fill="#000000" d="M 512.125 280.582031 C 543.265625 280.582031 568.519531 253.546875 568.519531 220.195312 C 568.519531 186.839844 543.265625 159.804688 512.125 159.804688 C 480.984375 159.804688 455.734375 186.839844 455.734375 220.195312 C 455.734375 253.546875 480.984375 280.582031 512.125 280.582031 " fill-opacity="1" fill-rule="nonzero"/><path fill="#000000" d="M 546.246094 304.335938 L 478.007812 304.335938 C 440.277344 304.335938 409.695312 334.921875 409.695312 372.648438 L 409.695312 395.203125 C 409.695312 414.085938 425.003906 429.394531 443.886719 429.394531 L 580.367188 429.394531 C 599.253906 429.394531 614.5625 414.085938 614.5625 395.203125 L 614.5625 372.648438 C 614.5625 334.921875 583.972656 304.335938 546.246094 304.335938 " fill-opacity="1" fill-rule="nonzero"/><path fill="#000000" d="M 619.25 283.953125 C 642.902344 283.953125 662.082031 263.414062 662.082031 238.078125 C 662.082031 212.75 642.902344 192.207031 619.25 192.207031 C 595.59375 192.207031 576.417969 212.75 576.417969 238.078125 C 576.417969 263.414062 595.59375 283.953125 619.25 283.953125 " fill-opacity="1" fill-rule="nonzero"/><path fill="#000000" d="M 405.003906 283.953125 C 428.660156 283.953125 447.839844 263.414062 447.839844 238.078125 C 447.839844 212.75 428.660156 192.207031 405.003906 192.207031 C 381.351562 192.207031 362.175781 212.75 362.175781 238.078125 C 362.175781 263.414062 381.351562 283.953125 405.003906 283.953125 " fill-opacity="1" fill-rule="nonzero"/><path fill="#000000" d="M 442.046875 303.21875 C 438.460938 302.433594 434.746094 301.996094 430.925781 301.996094 L 379.089844 301.996094 C 350.429688 301.996094 327.199219 325.226562 327.199219 353.882812 L 327.199219 371.015625 C 327.199219 385.359375 338.824219 396.988281 353.167969 396.988281 L 398.285156 396.988281 L 398.285156 373.492188 C 398.285156 342.652344 416.128906 315.984375 442.046875 303.21875 " fill-opacity="1" fill-rule="nonzero"/><path fill="#000000" d="M 645.167969 301.996094 L 593.332031 301.996094 C 589.507812 301.996094 585.792969 302.433594 582.207031 303.21875 C 608.125 315.984375 625.972656 342.652344 625.972656 373.492188 L 625.972656 396.988281 L 671.085938 396.988281 C 685.429688 396.988281 697.058594 385.359375 697.058594 371.015625 L 697.058594 353.882812 C 697.058594 325.226562 673.824219 301.996094 645.167969 301.996094 " fill-opacity="1" fill-rule="nonzero"/></svg>