<svg xmlns="http://www.w3.org/2000/svg" xmlns:xlink="http://www.w3.org/1999/xlink" width="1366" zoomAndPan="magnify" viewBox="0 0 1024.5 576" height="768" preserveAspectRatio="xMidYMid meet" version="1.0"><defs><clipPath id="9496b4c62f"><path d="M 256 31.808594 L 768 31.808594 L 768 544.558594 L 256 544.558594 Z M 256 31.808594 " clip-rule="nonzero"/></clipPath></defs><g clip-path="url(#9496b4c62f)"><path fill="#000000" d="M 644.113281 544.558594 L 381.617188 544.558594 C 312.253906 544.558594 256.488281 488.796875 256.488281 419.429688 L 256.488281 156.9375 C 256.488281 87.570312 312.253906 31.808594 381.617188 31.808594 L 642.75 31.808594 C 712.117188 31.808594 767.878906 87.570312 767.878906 156.9375 L 767.878906 418.070312 C 767.878906 487.433594 712.117188 543.199219 642.75 543.199219 Z M 381.617188 72.609375 C 335.375 72.609375 297.292969 110.691406 297.292969 156.9375 L 297.292969 418.070312 C 297.292969 464.3125 335.375 502.394531 381.617188 502.394531 L 642.75 502.394531 C 688.992188 502.394531 727.078125 464.3125 727.078125 418.070312 L 727.078125 156.9375 C 727.078125 110.691406 688.992188 72.609375 642.75 72.609375 Z M 381.617188 72.609375 " fill-opacity="1" fill-rule="nonzero"/></g><path fill="#000000" d="M 513.542969 453.433594 C 423.777344 453.433594 351.695312 381.347656 351.695312 291.582031 C 351.695312 201.820312 423.777344 129.734375 513.542969 129.734375 C 603.308594 129.734375 675.394531 201.820312 675.394531 291.582031 C 675.394531 381.347656 603.308594 453.433594 513.542969 453.433594 Z M 513.542969 169.175781 C 445.539062 169.175781 391.136719 223.578125 391.136719 291.582031 C 391.136719 359.585938 445.539062 413.992188 513.542969 413.992188 C 581.546875 413.992188 635.949219 359.585938 635.949219 291.582031 C 635.949219 223.578125 581.546875 169.175781 513.542969 169.175781 Z M 513.542969 169.175781 " fill-opacity="1" fill-rule="nonzero"/><path fill="#000000" d="M 513.542969 365.027344 C 472.742188 365.027344 440.097656 332.386719 440.097656 291.582031 C 440.097656 250.78125 472.742188 218.140625 513.542969 218.140625 C 554.347656 218.140625 586.988281 250.78125 586.988281 291.582031 C 586.988281 332.386719 554.347656 365.027344 513.542969 365.027344 Z M 513.542969 258.941406 C 495.863281 258.941406 480.902344 273.902344 480.902344 291.582031 C 480.902344 309.265625 495.863281 324.226562 513.542969 324.226562 C 531.226562 324.226562 546.1875 309.265625 546.1875 291.582031 C 546.1875 273.902344 531.226562 258.941406 513.542969 258.941406 Z M 513.542969 258.941406 " fill-opacity="1" fill-rule="nonzero"/><path fill="#000000" d="M 688.992188 139.253906 C 688.992188 140.144531 688.949219 141.035156 688.863281 141.921875 C 688.777344 142.808594 688.644531 143.6875 688.472656 144.5625 C 688.296875 145.433594 688.082031 146.296875 687.824219 147.152344 C 687.5625 148.003906 687.265625 148.839844 686.921875 149.664062 C 686.582031 150.488281 686.203125 151.292969 685.78125 152.078125 C 685.363281 152.863281 684.90625 153.625 684.410156 154.367188 C 683.914062 155.109375 683.382812 155.824219 682.820312 156.511719 C 682.253906 157.199219 681.65625 157.859375 681.027344 158.488281 C 680.398438 159.121094 679.738281 159.71875 679.050781 160.28125 C 678.359375 160.847656 677.644531 161.378906 676.90625 161.871094 C 676.164062 162.367188 675.402344 162.824219 674.613281 163.246094 C 673.828125 163.664062 673.023438 164.046875 672.203125 164.386719 C 671.378906 164.726562 670.542969 165.027344 669.6875 165.285156 C 668.835938 165.542969 667.972656 165.761719 667.097656 165.933594 C 666.226562 166.109375 665.34375 166.238281 664.457031 166.324219 C 663.570312 166.414062 662.683594 166.457031 661.792969 166.457031 C 660.902344 166.457031 660.011719 166.414062 659.125 166.324219 C 658.238281 166.238281 657.359375 166.109375 656.484375 165.933594 C 655.613281 165.761719 654.75 165.542969 653.894531 165.285156 C 653.042969 165.027344 652.207031 164.726562 651.382812 164.386719 C 650.558594 164.046875 649.753906 163.664062 648.96875 163.246094 C 648.183594 162.824219 647.421875 162.367188 646.679688 161.871094 C 645.9375 161.378906 645.222656 160.847656 644.535156 160.28125 C 643.847656 159.71875 643.1875 159.121094 642.558594 158.488281 C 641.929688 157.859375 641.332031 157.199219 640.765625 156.511719 C 640.199219 155.824219 639.671875 155.109375 639.175781 154.367188 C 638.679688 153.625 638.222656 152.863281 637.800781 152.078125 C 637.382812 151.292969 637.003906 150.488281 636.660156 149.664062 C 636.320312 148.839844 636.019531 148.003906 635.761719 147.152344 C 635.503906 146.296875 635.289062 145.433594 635.113281 144.5625 C 634.941406 143.6875 634.808594 142.808594 634.722656 141.921875 C 634.632812 141.035156 634.589844 140.144531 634.589844 139.253906 C 634.589844 138.363281 634.632812 137.476562 634.722656 136.589844 C 634.808594 135.703125 634.941406 134.820312 635.113281 133.949219 C 635.289062 133.074219 635.503906 132.210938 635.761719 131.359375 C 636.019531 130.507812 636.320312 129.667969 636.660156 128.84375 C 637.003906 128.023438 637.382812 127.21875 637.800781 126.433594 C 638.222656 125.644531 638.679688 124.882812 639.175781 124.140625 C 639.671875 123.402344 640.199219 122.6875 640.765625 122 C 641.332031 121.308594 641.929688 120.652344 642.558594 120.019531 C 643.1875 119.390625 643.847656 118.792969 644.535156 118.226562 C 645.222656 117.664062 645.9375 117.132812 646.679688 116.636719 C 647.421875 116.144531 648.183594 115.683594 648.96875 115.265625 C 649.753906 114.84375 650.558594 114.464844 651.382812 114.125 C 652.207031 113.78125 653.042969 113.484375 653.894531 113.226562 C 654.75 112.964844 655.613281 112.75 656.484375 112.574219 C 657.359375 112.402344 658.238281 112.273438 659.125 112.183594 C 660.011719 112.097656 660.902344 112.054688 661.792969 112.054688 C 662.683594 112.054688 663.570312 112.097656 664.457031 112.183594 C 665.34375 112.273438 666.226562 112.402344 667.097656 112.574219 C 667.972656 112.75 668.835938 112.964844 669.6875 113.226562 C 670.542969 113.484375 671.378906 113.78125 672.203125 114.125 C 673.023438 114.464844 673.828125 114.84375 674.613281 115.265625 C 675.402344 115.683594 676.164062 116.144531 676.90625 116.636719 C 677.644531 117.132812 678.359375 117.664062 679.050781 118.226562 C 679.738281 118.792969 680.398438 119.390625 681.027344 120.019531 C 681.65625 120.652344 682.253906 121.308594 682.820312 122 C 683.382812 122.6875 683.914062 123.402344 684.410156 124.140625 C 684.90625 124.882812 685.363281 125.644531 685.78125 126.433594 C 686.203125 127.21875 686.582031 128.023438 686.921875 128.84375 C 687.265625 129.667969 687.5625 130.507812 687.824219 131.359375 C 688.082031 132.210938 688.296875 133.074219 688.472656 133.949219 C 688.644531 134.820312 688.777344 135.703125 688.863281 136.589844 C 688.949219 137.476562 688.992188 138.363281 688.992188 139.253906 Z M 688.992188 139.253906 " fill-opacity="1" fill-rule="nonzero"/></svg>