<svg xmlns="http://www.w3.org/2000/svg" xmlns:xlink="http://www.w3.org/1999/xlink" width="1366" zoomAndPan="magnify" viewBox="0 0 1024.5 576" height="768" preserveAspectRatio="xMidYMid meet" version="1.0"><defs><clipPath id="ee45f46fdd"><path d="M 257.027344 33.027344 L 766.78125 33.027344 L 766.78125 542.78125 L 257.027344 542.78125 Z M 257.027344 33.027344 " clip-rule="nonzero"/></clipPath></defs><g clip-path="url(#ee45f46fdd)"><path fill="#000000" d="M 766.96875 465.429688 C 766.96875 508.222656 732.273438 542.917969 689.476562 542.917969 L 334.53125 542.917969 C 291.738281 542.917969 257.046875 508.222656 257.046875 465.429688 L 257.046875 110.484375 C 257.046875 67.6875 291.738281 32.996094 334.53125 32.996094 L 689.480469 32.996094 C 732.277344 32.996094 766.96875 67.6875 766.96875 110.484375 Z M 766.96875 465.429688 " fill-opacity="1" fill-rule="nonzero"/></g><path fill="#ffffff" d="M 458.679688 214.921875 C 458.679688 216.171875 458.621094 217.414062 458.496094 218.65625 C 458.375 219.898438 458.191406 221.128906 457.949219 222.355469 C 457.707031 223.578125 457.402344 224.785156 457.039062 225.980469 C 456.679688 227.175781 456.257812 228.347656 455.78125 229.5 C 455.304688 230.652344 454.769531 231.777344 454.183594 232.878906 C 453.59375 233.980469 452.953125 235.046875 452.261719 236.085938 C 451.566406 237.121094 450.824219 238.125 450.035156 239.089844 C 449.242188 240.050781 448.40625 240.976562 447.523438 241.859375 C 446.640625 242.738281 445.71875 243.578125 444.753906 244.367188 C 443.789062 245.160156 442.789062 245.902344 441.75 246.59375 C 440.714844 247.289062 439.644531 247.929688 438.542969 248.515625 C 437.445312 249.105469 436.316406 249.636719 435.164062 250.117188 C 434.011719 250.59375 432.839844 251.011719 431.644531 251.375 C 430.453125 251.738281 429.242188 252.039062 428.019531 252.28125 C 426.796875 252.527344 425.5625 252.710938 424.320312 252.832031 C 423.078125 252.953125 421.835938 253.015625 420.585938 253.015625 C 419.339844 253.015625 418.09375 252.953125 416.855469 252.832031 C 415.613281 252.710938 414.378906 252.527344 413.15625 252.28125 C 411.933594 252.039062 410.722656 251.738281 409.53125 251.375 C 408.335938 251.011719 407.164062 250.59375 406.011719 250.117188 C 404.859375 249.636719 403.730469 249.105469 402.632812 248.515625 C 401.53125 247.929688 400.460938 247.289062 399.425781 246.59375 C 398.386719 245.902344 397.386719 245.160156 396.421875 244.367188 C 395.457031 243.578125 394.535156 242.738281 393.652344 241.859375 C 392.769531 240.976562 391.933594 240.050781 391.140625 239.089844 C 390.351562 238.125 389.609375 237.121094 388.914062 236.085938 C 388.222656 235.046875 387.582031 233.980469 386.992188 232.878906 C 386.40625 231.777344 385.871094 230.652344 385.394531 229.5 C 384.917969 228.347656 384.496094 227.175781 384.136719 225.980469 C 383.773438 224.785156 383.46875 223.578125 383.226562 222.355469 C 382.984375 221.128906 382.800781 219.898438 382.679688 218.65625 C 382.554688 217.414062 382.496094 216.171875 382.496094 214.921875 C 382.496094 213.675781 382.554688 212.429688 382.679688 211.1875 C 382.800781 209.945312 382.984375 208.714844 383.226562 207.492188 C 383.46875 206.265625 383.773438 205.058594 384.136719 203.863281 C 384.496094 202.671875 384.917969 201.496094 385.394531 200.34375 C 385.871094 199.191406 386.40625 198.066406 386.992188 196.964844 C 387.582031 195.867188 388.222656 194.796875 388.914062 193.757812 C 389.609375 192.722656 390.351562 191.722656 391.140625 190.757812 C 391.933594 189.792969 392.769531 188.867188 393.652344 187.988281 C 394.535156 187.105469 395.457031 186.269531 396.421875 185.476562 C 397.386719 184.683594 398.386719 183.941406 399.425781 183.25 C 400.460938 182.554688 401.53125 181.914062 402.632812 181.328125 C 403.730469 180.738281 404.859375 180.207031 406.011719 179.730469 C 407.164062 179.25 408.335938 178.832031 409.53125 178.46875 C 410.722656 178.109375 411.933594 177.804688 413.15625 177.5625 C 414.378906 177.316406 415.613281 177.136719 416.855469 177.011719 C 418.09375 176.890625 419.339844 176.828125 420.585938 176.828125 C 421.835938 176.828125 423.078125 176.890625 424.320312 177.011719 C 425.5625 177.136719 426.796875 177.316406 428.019531 177.5625 C 429.242188 177.804688 430.453125 178.109375 431.644531 178.46875 C 432.839844 178.832031 434.011719 179.25 435.164062 179.730469 C 436.316406 180.207031 437.445312 180.738281 438.542969 181.328125 C 439.644531 181.914062 440.714844 182.554688 441.75 183.25 C 442.789062 183.941406 443.789062 184.683594 444.753906 185.476562 C 445.71875 186.269531 446.640625 187.105469 447.523438 187.988281 C 448.40625 188.867188 449.242188 189.792969 450.035156 190.757812 C 450.824219 191.722656 451.566406 192.722656 452.261719 193.757812 C 452.953125 194.796875 453.59375 195.867188 454.183594 196.964844 C 454.769531 198.066406 455.304688 199.191406 455.78125 200.34375 C 456.257812 201.496094 456.679688 202.671875 457.039062 203.863281 C 457.402344 205.058594 457.707031 206.265625 457.949219 207.492188 C 458.191406 208.714844 458.375 209.945312 458.496094 211.1875 C 458.621094 212.429688 458.679688 213.675781 458.679688 214.921875 Z M 458.679688 214.921875 " fill-opacity="1" fill-rule="nonzero"/><path fill="#ffffff" d="M 387.75 281.097656 L 453.191406 281.097656 L 453.191406 491.625 L 387.75 491.625 Z M 387.75 281.097656 " fill-opacity="1" fill-rule="nonzero"/><path fill="#ffffff" d="M 494.351562 281.097656 L 556.636719 281.097656 L 556.636719 491.625 L 494.351562 491.625 Z M 494.351562 281.097656 " fill-opacity="1" fill-rule="nonzero"/><path fill="#ffffff" d="M 497.042969 393.1875 L 559.328125 393.1875 L 559.328125 491.625 L 497.042969 491.625 Z M 497.042969 393.1875 " fill-opacity="1" fill-rule="nonzero"/><path fill="#ffffff" d="M 559.328125 393.1875 C 559.328125 393.1875 558.355469 365.882812 565.554688 351.683594 C 565.554688 351.683594 572.757812 334.199219 595.394531 334.09375 C 595.394531 334.09375 621.941406 329.460938 629.554688 355.800781 C 629.554688 355.800781 632.4375 370.410156 632.4375 376.585938 C 632.4375 382.765625 632.644531 491.625 632.644531 491.625 L 697.878906 491.625 L 697.878906 371.03125 C 697.878906 371.03125 702.613281 302.914062 661.726562 284.253906 C 661.726562 284.253906 594.5 254.070312 558.011719 309.5 C 558.011719 309.5 550.054688 314.984375 548.953125 299.617188 C 547.855469 284.253906 538.527344 323.21875 538.253906 324.042969 C 537.976562 324.863281 548.953125 401.695312 548.953125 401.695312 Z M 559.328125 393.1875 " fill-opacity="1" fill-rule="nonzero"/></svg>