<svg xmlns="http://www.w3.org/2000/svg" xmlns:xlink="http://www.w3.org/1999/xlink" width="1366" zoomAndPan="magnify" viewBox="0 0 1024.5 576" height="768" preserveAspectRatio="xMidYMid meet" version="1.0"><defs><clipPath id="ce84a65e91"><path d="M 294.109375 24.410156 L 729.648438 24.410156 L 729.648438 564 L 294.109375 564 Z M 294.109375 24.410156 " clip-rule="nonzero"/></clipPath></defs><g clip-path="url(#ce84a65e91)"><path fill="#000000" d="M 572.382812 423.378906 C 625.25 340.132812 683.023438 247.730469 683.023438 197.386719 C 683.023438 101.980469 605.429688 24.363281 510.054688 24.363281 C 414.664062 24.363281 337.058594 101.980469 337.058594 197.386719 C 337.058594 244.824219 397.125 342.261719 448.246094 423.660156 C 373.371094 430.730469 294.363281 452.078125 294.363281 492.386719 C 294.363281 514.335938 318.113281 532.855469 363.046875 545.941406 C 489.769531 582.847656 729.394531 562.089844 729.394531 492.386719 C 729.394531 451.417969 648.75 430.152344 572.382812 423.378906 Z M 510.054688 479.164062 C 464.746094 403.089844 360.320312 251.402344 360.320312 197.386719 C 360.320312 114.808594 427.488281 47.628906 510.054688 47.628906 C 592.601562 47.628906 659.761719 114.808594 659.761719 197.386719 C 659.761719 254.941406 555.851562 402.425781 510.054688 479.164062 Z M 510.054688 479.164062 " fill-opacity="1" fill-rule="nonzero"/></g><path fill="#000000" d="M 510.054688 107.535156 C 463.878906 107.535156 426.3125 145.113281 426.3125 191.300781 C 426.3125 237.472656 463.878906 275.03125 510.054688 275.03125 C 556.214844 275.03125 593.769531 237.472656 593.769531 191.300781 C 593.769531 145.113281 556.214844 107.535156 510.054688 107.535156 Z M 510.054688 251.765625 C 476.703125 251.765625 449.574219 224.644531 449.574219 191.300781 C 449.574219 157.941406 476.703125 130.800781 510.054688 130.800781 C 543.390625 130.800781 570.507812 157.941406 570.507812 191.300781 C 570.507812 224.640625 543.390625 251.765625 510.054688 251.765625 Z M 510.054688 251.765625 " fill-opacity="1" fill-rule="nonzero"/></svg>