<svg xmlns="http://www.w3.org/2000/svg" xmlns:xlink="http://www.w3.org/1999/xlink" width="1366" zoomAndPan="magnify" viewBox="0 0 1024.5 576" height="768" preserveAspectRatio="xMidYMid meet" version="1.0"><path fill="#737373" d="M 624.773438 97.957031 C 627.398438 99.183594 629.984375 100.488281 632.527344 101.875 C 635.074219 103.257812 637.578125 104.71875 640.042969 106.257812 C 642.503906 107.792969 644.921875 109.40625 647.296875 111.09375 C 649.667969 112.78125 651.992188 114.542969 654.273438 116.375 C 656.550781 118.210938 658.777344 120.117188 660.953125 122.089844 C 663.132812 124.066406 665.257812 126.109375 667.328125 128.222656 C 669.398438 130.335938 671.414062 132.515625 673.375 134.757812 C 675.335938 137.003906 677.238281 139.308594 679.085938 141.679688 C 680.929688 144.050781 682.714844 146.484375 684.4375 148.972656 C 686.164062 151.464844 687.828125 154.015625 689.429688 156.621094 C 691.027344 159.226562 692.566406 161.886719 694.039062 164.601562 C 695.511719 167.316406 696.917969 170.082031 698.257812 172.898438 C 699.601562 175.714844 700.875 178.578125 702.082031 181.488281 C 703.285156 184.402344 704.425781 187.355469 705.492188 190.355469 C 706.5625 193.355469 707.558594 196.394531 708.488281 199.476562 C 709.417969 202.558594 710.273438 205.675781 711.058594 208.828125 C 711.84375 211.980469 712.558594 215.167969 713.199219 218.386719 C 713.84375 221.609375 714.410156 224.855469 714.90625 228.136719 C 715.402344 231.414062 715.824219 234.714844 716.171875 238.042969 C 716.519531 241.371094 716.792969 244.71875 716.992188 248.089844 C 717.195312 251.460938 717.320312 254.847656 717.371094 258.253906 C 717.421875 261.65625 717.402344 265.074219 717.304688 268.503906 C 717.207031 271.933594 717.035156 275.371094 716.792969 278.820312 C 716.546875 282.269531 716.226562 285.71875 715.832031 289.175781 C 715.441406 292.632812 714.972656 296.089844 714.433594 299.550781 C 713.894531 303.007812 713.28125 306.460938 712.597656 309.910156 C 711.910156 313.363281 711.152344 316.804688 710.324219 320.238281 C 709.496094 323.675781 708.59375 327.097656 707.625 330.507812 C 706.652344 333.917969 705.613281 337.3125 704.5 340.691406 C 703.390625 344.070312 702.210938 347.429688 700.964844 350.769531 C 699.714844 354.105469 698.402344 357.421875 697.019531 360.710938 C 695.636719 364 694.191406 367.261719 692.679688 370.496094 C 691.167969 373.730469 689.59375 376.929688 687.953125 380.101562 C 686.316406 383.269531 684.613281 386.402344 682.851562 389.503906 C 681.089844 392.601562 679.269531 395.65625 677.390625 398.675781 C 675.507812 401.695312 673.570312 404.671875 671.574219 407.601562 C 669.582031 410.535156 667.53125 413.421875 665.425781 416.257812 C 663.324219 419.097656 661.167969 421.886719 658.957031 424.625 C 656.75 427.363281 654.492188 430.046875 652.183594 432.679688 C 649.878906 435.3125 647.523438 437.886719 645.121094 440.402344 C 642.722656 442.921875 640.277344 445.378906 637.789062 447.78125 C 635.300781 450.179688 632.769531 452.515625 630.199219 454.789062 C 627.632812 457.0625 625.023438 459.269531 622.378906 461.414062 C 619.730469 463.554688 617.050781 465.632812 614.335938 467.636719 C 611.621094 469.644531 608.875 471.582031 606.097656 473.449219 C 603.324219 475.316406 600.515625 477.109375 597.683594 478.832031 C 594.851562 480.550781 591.992188 482.199219 589.113281 483.773438 C 586.230469 485.34375 583.328125 486.839844 580.402344 488.257812 C 577.476562 489.679688 574.535156 491.019531 571.578125 492.28125 C 568.617188 493.542969 565.644531 494.726562 562.660156 495.832031 C 559.671875 496.933594 556.675781 497.957031 553.667969 498.898438 C 550.660156 499.839844 547.644531 500.695312 544.621094 501.472656 C 541.601562 502.25 538.578125 502.945312 535.550781 503.554688 C 532.523438 504.164062 529.496094 504.691406 526.46875 505.132812 C 523.441406 505.574219 520.421875 505.933594 517.402344 506.207031 C 514.382812 506.480469 511.375 506.671875 508.371094 506.773438 C 505.371094 506.878906 502.378906 506.898438 499.398438 506.832031 C 496.421875 506.765625 493.457031 506.617188 490.507812 506.382812 C 487.558594 506.148438 484.628906 505.828125 481.714844 505.421875 C 478.804688 505.019531 475.914062 504.53125 473.046875 503.957031 C 470.175781 503.386719 467.335938 502.730469 464.519531 501.992188 C 461.703125 501.253906 458.914062 500.433594 456.15625 499.527344 C 453.394531 498.625 450.667969 497.640625 447.976562 496.574219 C 445.28125 495.507812 442.621094 494.359375 440 493.132812 C 437.375 491.90625 434.789062 490.601562 432.246094 489.21875 C 429.699219 487.832031 427.195312 486.371094 424.730469 484.835938 C 422.269531 483.296875 419.851562 481.683594 417.476562 479.996094 C 415.105469 478.308594 412.78125 476.546875 410.5 474.714844 C 408.222656 472.878906 405.996094 470.976562 403.820312 469 C 401.640625 467.023438 399.515625 464.980469 397.445312 462.867188 C 395.375 460.753906 393.359375 458.578125 391.398438 456.332031 C 389.4375 454.089844 387.535156 451.78125 385.6875 449.410156 C 383.84375 447.039062 382.058594 444.609375 380.335938 442.117188 C 378.609375 439.625 376.945312 437.078125 375.34375 434.472656 C 373.746094 431.863281 372.207031 429.203125 370.734375 426.488281 C 369.261719 423.773438 367.855469 421.007812 366.515625 418.191406 C 365.171875 415.375 363.898438 412.511719 362.691406 409.601562 C 361.488281 406.691406 360.347656 403.734375 359.28125 400.734375 C 358.210938 397.734375 357.214844 394.695312 356.285156 391.613281 C 355.355469 388.535156 354.5 385.417969 353.714844 382.261719 C 352.929688 379.109375 352.214844 375.921875 351.574219 372.703125 C 350.929688 369.484375 350.363281 366.234375 349.867188 362.957031 C 349.371094 359.679688 348.949219 356.375 348.601562 353.046875 C 348.253906 349.71875 347.980469 346.371094 347.78125 343 C 347.578125 339.628906 347.453125 336.242188 347.402344 332.839844 C 347.351562 329.433594 347.371094 326.015625 347.46875 322.585938 C 347.566406 319.15625 347.738281 315.71875 347.980469 312.269531 C 348.226562 308.824219 348.546875 305.371094 348.941406 301.914062 C 349.332031 298.457031 349.800781 295 350.339844 291.542969 C 350.878906 288.082031 351.492188 284.628906 352.175781 281.179688 C 352.863281 277.730469 353.621094 274.285156 354.449219 270.851562 C 355.277344 267.417969 356.179688 263.992188 357.148438 260.582031 C 358.121094 257.171875 359.160156 253.777344 360.273438 250.398438 C 361.382812 247.019531 362.5625 243.660156 363.808594 240.324219 C 365.058594 236.984375 366.371094 233.671875 367.753906 230.378906 C 369.136719 227.089844 370.582031 223.828125 372.09375 220.59375 C 373.605469 217.363281 375.179688 214.160156 376.820312 210.992188 C 378.457031 207.820312 380.160156 204.6875 381.921875 201.589844 C 383.683594 198.492188 385.503906 195.433594 387.382812 192.414062 C 389.265625 189.394531 391.203125 186.421875 393.199219 183.488281 C 395.191406 180.554688 397.242188 177.671875 399.347656 174.832031 C 401.449219 171.992188 403.605469 169.203125 405.816406 166.464844 C 408.023438 163.726562 410.28125 161.042969 412.589844 158.410156 C 414.894531 155.78125 417.25 153.207031 419.652344 150.6875 C 422.050781 148.167969 424.496094 145.710938 426.984375 143.3125 C 429.472656 140.914062 432.003906 138.578125 434.574219 136.304688 C 437.140625 134.03125 439.75 131.820312 442.394531 129.679688 C 445.042969 127.535156 447.722656 125.460938 450.4375 123.453125 C 453.152344 121.445312 455.898438 119.507812 458.671875 117.640625 C 461.449219 115.777344 464.257812 113.980469 467.089844 112.261719 C 469.921875 110.539062 472.78125 108.890625 475.660156 107.320312 C 478.542969 105.746094 481.445312 104.25 484.371094 102.832031 C 487.296875 101.414062 490.238281 100.070312 493.195312 98.808594 C 496.15625 97.546875 499.128906 96.363281 502.113281 95.261719 C 505.101562 94.15625 508.101562 93.136719 511.105469 92.195312 C 514.113281 91.253906 517.128906 90.394531 520.152344 89.617188 C 523.171875 88.839844 526.195312 88.148438 529.222656 87.535156 C 532.25 86.925781 535.277344 86.398438 538.304688 85.957031 C 541.332031 85.515625 544.351562 85.15625 547.371094 84.882812 C 550.390625 84.609375 553.398438 84.421875 556.402344 84.316406 C 559.402344 84.210938 562.394531 84.191406 565.375 84.257812 C 568.351562 84.324219 571.316406 84.472656 574.265625 84.710938 C 577.214844 84.945312 580.144531 85.265625 583.058594 85.667969 C 585.96875 86.074219 588.859375 86.558594 591.726562 87.132812 C 594.597656 87.703125 597.4375 88.359375 600.253906 89.097656 C 603.070312 89.839844 605.859375 90.660156 608.617188 91.5625 C 611.378906 92.46875 614.105469 93.453125 616.796875 94.519531 C 619.492188 95.585938 622.152344 96.730469 624.773438 97.957031 Z M 624.773438 97.957031 " fill-opacity="1" fill-rule="nonzero"/><path fill="#d9d9d9" d="M 592.558594 82.898438 C 595.179688 84.125 597.765625 85.429688 600.3125 86.8125 C 602.859375 88.195312 605.363281 89.65625 607.824219 91.195312 C 610.289062 92.734375 612.703125 94.34375 615.078125 96.03125 C 617.449219 97.722656 619.777344 99.480469 622.054688 101.316406 C 624.332031 103.148438 626.558594 105.054688 628.738281 107.03125 C 630.914062 109.003906 633.039062 111.050781 635.109375 113.160156 C 637.183594 115.273438 639.199219 117.453125 641.160156 119.695312 C 643.121094 121.941406 645.023438 124.25 646.867188 126.621094 C 648.710938 128.992188 650.496094 131.421875 652.222656 133.914062 C 653.945312 136.40625 655.609375 138.953125 657.210938 141.558594 C 658.8125 144.164062 660.347656 146.824219 661.820312 149.539062 C 663.292969 152.253906 664.699219 155.019531 666.042969 157.835938 C 667.382812 160.652344 668.65625 163.515625 669.863281 166.429688 C 671.070312 169.339844 672.207031 172.296875 673.277344 175.296875 C 674.34375 178.292969 675.34375 181.335938 676.269531 184.414062 C 677.199219 187.496094 678.058594 190.613281 678.84375 193.765625 C 679.628906 196.921875 680.34375 200.109375 680.984375 203.328125 C 681.625 206.546875 682.191406 209.796875 682.6875 213.074219 C 683.183594 216.351562 683.605469 219.65625 683.953125 222.980469 C 684.300781 226.308594 684.578125 229.660156 684.777344 233.03125 C 684.976562 236.398438 685.101562 239.785156 685.15625 243.191406 C 685.207031 246.59375 685.183594 250.011719 685.085938 253.441406 C 684.992188 256.871094 684.820312 260.3125 684.574219 263.757812 C 684.328125 267.207031 684.007812 270.660156 683.617188 274.117188 C 683.222656 277.574219 682.757812 281.03125 682.21875 284.488281 C 681.675781 287.945312 681.066406 291.398438 680.378906 294.851562 C 679.695312 298.300781 678.9375 301.742188 678.109375 305.179688 C 677.277344 308.613281 676.378906 312.035156 675.40625 315.445312 C 674.4375 318.859375 673.394531 322.253906 672.285156 325.632812 C 671.171875 329.011719 669.996094 332.367188 668.746094 335.707031 C 667.5 339.046875 666.183594 342.359375 664.804688 345.648438 C 663.421875 348.9375 661.976562 352.199219 660.460938 355.433594 C 658.949219 358.667969 657.375 361.871094 655.738281 365.039062 C 654.097656 368.210938 652.398438 371.34375 650.636719 374.441406 C 648.875 377.539062 647.050781 380.597656 645.171875 383.617188 C 643.289062 386.632812 641.351562 389.609375 639.359375 392.542969 C 637.363281 395.472656 635.316406 398.359375 633.210938 401.199219 C 631.105469 404.039062 628.949219 406.824219 626.742188 409.5625 C 624.53125 412.300781 622.273438 414.988281 619.96875 417.617188 C 617.660156 420.25 615.304688 422.824219 612.90625 425.34375 C 610.503906 427.859375 608.058594 430.320312 605.570312 432.71875 C 603.082031 435.117188 600.554688 437.453125 597.984375 439.726562 C 595.414062 442 592.804688 444.207031 590.160156 446.351562 C 587.515625 448.496094 584.835938 450.570312 582.121094 452.578125 C 579.40625 454.585938 576.660156 456.519531 573.882812 458.386719 C 571.105469 460.253906 568.300781 462.046875 565.46875 463.769531 C 562.632812 465.492188 559.777344 467.136719 556.894531 468.710938 C 554.011719 470.28125 551.109375 471.777344 548.183594 473.199219 C 545.261719 474.617188 542.320312 475.957031 539.359375 477.21875 C 536.402344 478.484375 533.429688 479.667969 530.441406 480.769531 C 527.453125 481.871094 524.457031 482.894531 521.449219 483.835938 C 518.441406 484.777344 515.425781 485.636719 512.40625 486.414062 C 509.382812 487.1875 506.359375 487.882812 503.332031 488.492188 C 500.304688 489.101562 497.277344 489.628906 494.25 490.074219 C 491.226562 490.515625 488.203125 490.871094 485.183594 491.148438 C 482.167969 491.421875 479.15625 491.609375 476.15625 491.714844 C 473.152344 491.816406 470.164062 491.835938 467.183594 491.773438 C 464.203125 491.707031 461.238281 491.554688 458.289062 491.320312 C 455.339844 491.085938 452.410156 490.765625 449.496094 490.363281 C 446.585938 489.957031 443.695312 489.46875 440.828125 488.898438 C 437.960938 488.324219 435.117188 487.667969 432.300781 486.929688 C 429.484375 486.191406 426.695312 485.371094 423.9375 484.464844 C 421.179688 483.5625 418.453125 482.578125 415.757812 481.511719 C 413.0625 480.445312 410.40625 479.296875 407.78125 478.070312 C 405.15625 476.84375 402.574219 475.539062 400.027344 474.15625 C 397.480469 472.773438 394.976562 471.3125 392.515625 469.773438 C 390.050781 468.234375 387.632812 466.625 385.261719 464.9375 C 382.886719 463.246094 380.5625 461.488281 378.285156 459.652344 C 376.007812 457.820312 373.777344 455.914062 371.601562 453.9375 C 369.425781 451.964844 367.300781 449.917969 365.230469 447.808594 C 363.15625 445.695312 361.140625 443.515625 359.179688 441.273438 C 357.21875 439.027344 355.316406 436.71875 353.472656 434.347656 C 351.628906 431.976562 349.84375 429.546875 348.117188 427.054688 C 346.390625 424.5625 344.730469 422.015625 343.128906 419.410156 C 341.527344 416.804688 339.992188 414.144531 338.519531 411.429688 C 337.046875 408.714844 335.636719 405.949219 334.296875 403.132812 C 332.957031 400.316406 331.683594 397.453125 330.476562 394.539062 C 329.269531 391.628906 328.132812 388.671875 327.0625 385.671875 C 325.996094 382.675781 324.996094 379.632812 324.066406 376.554688 C 323.140625 373.472656 322.28125 370.355469 321.496094 367.203125 C 320.710938 364.046875 319.996094 360.859375 319.355469 357.640625 C 318.714844 354.421875 318.144531 351.171875 317.652344 347.894531 C 317.15625 344.617188 316.734375 341.3125 316.386719 337.988281 C 316.035156 334.660156 315.761719 331.308594 315.5625 327.9375 C 315.363281 324.570312 315.234375 321.183594 315.183594 317.777344 C 315.132812 314.375 315.15625 310.957031 315.253906 307.527344 C 315.347656 304.097656 315.519531 300.65625 315.765625 297.210938 C 316.011719 293.761719 316.328125 290.308594 316.722656 286.851562 C 317.117188 283.394531 317.582031 279.9375 318.121094 276.480469 C 318.660156 273.023438 319.273438 269.570312 319.960938 266.117188 C 320.644531 262.667969 321.402344 259.226562 322.230469 255.789062 C 323.0625 252.355469 323.960938 248.933594 324.933594 245.523438 C 325.902344 242.109375 326.945312 238.714844 328.054688 235.335938 C 329.164062 231.957031 330.34375 228.601562 331.59375 225.261719 C 332.839844 221.921875 334.15625 218.609375 335.535156 215.320312 C 336.917969 212.03125 338.363281 208.769531 339.875 205.535156 C 341.386719 202.300781 342.964844 199.097656 344.601562 195.929688 C 346.242188 192.757812 347.941406 189.625 349.703125 186.527344 C 351.464844 183.429688 353.285156 180.371094 355.167969 177.351562 C 357.046875 174.335938 358.984375 171.359375 360.980469 168.425781 C 362.976562 165.496094 365.023438 162.609375 367.128906 159.769531 C 369.234375 156.933594 371.390625 154.144531 373.597656 151.40625 C 375.804688 148.667969 378.0625 145.980469 380.371094 143.351562 C 382.679688 140.71875 385.03125 138.144531 387.433594 135.625 C 389.835938 133.109375 392.277344 130.648438 394.765625 128.25 C 397.257812 125.851562 399.785156 123.515625 402.355469 121.242188 C 404.925781 118.96875 407.535156 116.761719 410.179688 114.617188 C 412.824219 112.472656 415.503906 110.398438 418.21875 108.390625 C 420.933594 106.382812 423.679688 104.449219 426.457031 102.582031 C 429.234375 100.714844 432.039062 98.921875 434.871094 97.199219 C 437.703125 95.476562 440.5625 93.832031 443.445312 92.257812 C 446.328125 90.6875 449.230469 89.191406 452.152344 87.769531 C 455.078125 86.351562 458.019531 85.011719 460.980469 83.75 C 463.9375 82.484375 466.910156 81.300781 469.898438 80.199219 C 472.886719 79.097656 475.882812 78.074219 478.890625 77.132812 C 481.898438 76.191406 484.914062 75.332031 487.933594 74.554688 C 490.953125 73.78125 493.980469 73.085938 497.007812 72.476562 C 500.035156 71.867188 503.0625 71.339844 506.085938 70.898438 C 509.113281 70.453125 512.136719 70.097656 515.152344 69.820312 C 518.171875 69.546875 521.183594 69.359375 524.183594 69.253906 C 527.1875 69.152344 530.175781 69.132812 533.15625 69.195312 C 536.136719 69.261719 539.101562 69.414062 542.050781 69.648438 C 545 69.882812 547.929688 70.203125 550.839844 70.605469 C 553.753906 71.011719 556.644531 71.5 559.511719 72.070312 C 562.378906 72.644531 565.222656 73.300781 568.039062 74.039062 C 570.855469 74.777344 573.644531 75.597656 576.402344 76.503906 C 579.160156 77.40625 581.886719 78.390625 584.582031 79.457031 C 587.277344 80.523438 589.933594 81.671875 592.558594 82.898438 Z M 592.558594 82.898438 " fill-opacity="1" fill-rule="nonzero"/><path fill="#000000" d="M 571.628906 127.660156 C 573.65625 128.605469 575.65625 129.617188 577.625 130.6875 C 579.59375 131.757812 581.53125 132.886719 583.4375 134.078125 C 585.339844 135.265625 587.210938 136.511719 589.046875 137.820312 C 590.882812 139.125 592.679688 140.488281 594.441406 141.90625 C 596.207031 143.324219 597.929688 144.796875 599.613281 146.324219 C 601.296875 147.851562 602.941406 149.433594 604.542969 151.066406 C 606.144531 152.703125 607.703125 154.386719 609.21875 156.121094 C 610.738281 157.859375 612.207031 159.644531 613.636719 161.476562 C 615.0625 163.308594 616.441406 165.191406 617.777344 167.117188 C 619.113281 169.046875 620.398438 171.015625 621.636719 173.03125 C 622.875 175.046875 624.0625 177.105469 625.203125 179.207031 C 626.339844 181.304688 627.429688 183.445312 628.464844 185.621094 C 629.503906 187.800781 630.488281 190.015625 631.421875 192.269531 C 632.355469 194.519531 633.234375 196.804688 634.0625 199.125 C 634.890625 201.445312 635.660156 203.796875 636.378906 206.179688 C 637.097656 208.5625 637.761719 210.972656 638.367188 213.414062 C 638.976562 215.851562 639.527344 218.316406 640.023438 220.808594 C 640.519531 223.296875 640.960938 225.8125 641.34375 228.347656 C 641.726562 230.882812 642.050781 233.4375 642.320312 236.011719 C 642.589844 238.585938 642.804688 241.175781 642.957031 243.78125 C 643.113281 246.386719 643.210938 249.007812 643.25 251.640625 C 643.289062 254.273438 643.273438 256.917969 643.199219 259.570312 C 643.125 262.222656 642.992188 264.882812 642.800781 267.550781 C 642.613281 270.214844 642.363281 272.886719 642.0625 275.558594 C 641.757812 278.234375 641.398438 280.90625 640.980469 283.582031 C 640.5625 286.257812 640.085938 288.929688 639.558594 291.597656 C 639.027344 294.265625 638.441406 296.929688 637.800781 299.585938 C 637.160156 302.242188 636.460938 304.890625 635.710938 307.527344 C 634.960938 310.167969 634.15625 312.792969 633.296875 315.40625 C 632.4375 318.019531 631.523438 320.617188 630.558594 323.199219 C 629.59375 325.78125 628.578125 328.34375 627.511719 330.886719 C 626.441406 333.433594 625.324219 335.957031 624.152344 338.457031 C 622.984375 340.957031 621.765625 343.433594 620.496094 345.886719 C 619.230469 348.335938 617.914062 350.761719 616.550781 353.15625 C 615.1875 355.554688 613.78125 357.917969 612.324219 360.253906 C 610.871094 362.589844 609.371094 364.890625 607.828125 367.15625 C 606.285156 369.425781 604.703125 371.65625 603.074219 373.851562 C 601.445312 376.046875 599.777344 378.207031 598.070312 380.324219 C 596.363281 382.441406 594.617188 384.519531 592.832031 386.554688 C 591.046875 388.589844 589.226562 390.582031 587.367188 392.527344 C 585.511719 394.476562 583.621094 396.378906 581.695312 398.230469 C 579.773438 400.085938 577.816406 401.894531 575.828125 403.652344 C 573.839844 405.410156 571.824219 407.121094 569.777344 408.777344 C 567.730469 410.433594 565.65625 412.039062 563.558594 413.59375 C 561.457031 415.144531 559.332031 416.644531 557.1875 418.085938 C 555.039062 419.53125 552.867188 420.917969 550.675781 422.25 C 548.484375 423.582031 546.277344 424.855469 544.046875 426.070312 C 541.816406 427.285156 539.570312 428.445312 537.308594 429.542969 C 535.046875 430.640625 532.773438 431.675781 530.484375 432.652344 C 528.195312 433.628906 525.894531 434.542969 523.585938 435.398438 C 521.273438 436.25 518.957031 437.042969 516.628906 437.769531 C 514.304688 438.496094 511.972656 439.160156 509.636719 439.761719 C 507.296875 440.363281 504.960938 440.898438 502.617188 441.371094 C 500.277344 441.84375 497.933594 442.25 495.59375 442.59375 C 493.253906 442.933594 490.914062 443.210938 488.582031 443.421875 C 486.246094 443.636719 483.917969 443.78125 481.597656 443.863281 C 479.273438 443.941406 476.960938 443.957031 474.65625 443.90625 C 472.351562 443.855469 470.058594 443.738281 467.777344 443.558594 C 465.496094 443.375 463.230469 443.128906 460.976562 442.816406 C 458.726562 442.503906 456.488281 442.125 454.273438 441.683594 C 452.054688 441.242188 449.855469 440.734375 447.675781 440.164062 C 445.496094 439.589844 443.339844 438.957031 441.207031 438.257812 C 439.074219 437.558594 436.964844 436.796875 434.878906 435.96875 C 432.796875 435.144531 430.738281 434.257812 428.710938 433.308594 C 426.683594 432.363281 424.683594 431.351562 422.714844 430.28125 C 420.742188 429.210938 418.808594 428.082031 416.902344 426.890625 C 414.996094 425.703125 413.128906 424.457031 411.292969 423.148438 C 409.457031 421.84375 407.65625 420.480469 405.894531 419.0625 C 404.132812 417.644531 402.410156 416.171875 400.726562 414.644531 C 399.042969 413.117188 397.398438 411.535156 395.796875 409.902344 C 394.195312 408.265625 392.636719 406.582031 391.121094 404.847656 C 389.601562 403.109375 388.132812 401.324219 386.703125 399.492188 C 385.277344 397.660156 383.894531 395.777344 382.5625 393.851562 C 381.226562 391.925781 379.941406 389.953125 378.703125 387.9375 C 377.464844 385.921875 376.277344 383.863281 375.136719 381.761719 C 374 379.664062 372.910156 377.523438 371.871094 375.347656 C 370.835938 373.167969 369.851562 370.953125 368.917969 368.699219 C 367.984375 366.449219 367.105469 364.164062 366.277344 361.84375 C 365.449219 359.523438 364.679688 357.171875 363.960938 354.789062 C 363.242188 352.40625 362.578125 349.996094 361.972656 347.554688 C 361.363281 345.117188 360.8125 342.652344 360.316406 340.160156 C 359.820312 337.671875 359.378906 335.15625 358.996094 332.621094 C 358.613281 330.085938 358.285156 327.53125 358.015625 324.957031 C 357.746094 322.382812 357.535156 319.792969 357.382812 317.1875 C 357.226562 314.582031 357.128906 311.960938 357.089844 309.328125 C 357.046875 306.695312 357.066406 304.050781 357.140625 301.398438 C 357.214844 298.746094 357.347656 296.085938 357.539062 293.417969 C 357.726562 290.753906 357.972656 288.082031 358.277344 285.410156 C 358.582031 282.734375 358.941406 280.0625 359.359375 277.386719 C 359.777344 274.710938 360.25 272.039062 360.78125 269.371094 C 361.3125 266.703125 361.898438 264.039062 362.539062 261.382812 C 363.179688 258.726562 363.875 256.078125 364.628906 253.441406 C 365.378906 250.800781 366.183594 248.175781 367.042969 245.5625 C 367.902344 242.949219 368.8125 240.351562 369.777344 237.769531 C 370.746094 235.1875 371.761719 232.625 372.828125 230.082031 C 373.898438 227.535156 375.015625 225.011719 376.1875 222.511719 C 377.355469 220.011719 378.574219 217.535156 379.84375 215.082031 C 381.109375 212.632812 382.425781 210.207031 383.789062 207.8125 C 385.148438 205.414062 386.558594 203.050781 388.011719 200.714844 C 389.46875 198.378906 390.964844 196.078125 392.507812 193.8125 C 394.050781 191.542969 395.636719 189.3125 397.265625 187.117188 C 398.890625 184.921875 400.558594 182.761719 402.269531 180.644531 C 403.976562 178.527344 405.722656 176.449219 407.507812 174.414062 C 409.292969 172.378906 411.113281 170.386719 412.96875 168.441406 C 414.828125 166.492188 416.71875 164.589844 418.644531 162.738281 C 420.566406 160.882812 422.523438 159.074219 424.511719 157.316406 C 426.5 155.558594 428.515625 153.847656 430.5625 152.191406 C 432.609375 150.535156 434.683594 148.929688 436.78125 147.375 C 438.882812 145.824219 441.003906 144.324219 443.152344 142.882812 C 445.300781 141.4375 447.472656 140.050781 449.664062 138.71875 C 451.851562 137.386719 454.0625 136.113281 456.292969 134.898438 C 458.523438 133.683594 460.765625 132.523438 463.027344 131.425781 C 465.289062 130.328125 467.566406 129.292969 469.855469 128.316406 C 472.144531 127.339844 474.445312 126.425781 476.753906 125.570312 C 479.0625 124.71875 481.382812 123.925781 483.710938 123.199219 C 486.035156 122.472656 488.367188 121.808594 490.703125 121.207031 C 493.039062 120.605469 495.378906 120.070312 497.722656 119.597656 C 500.0625 119.125 502.40625 118.71875 504.746094 118.375 C 507.085938 118.035156 509.421875 117.757812 511.757812 117.546875 C 514.09375 117.332031 516.421875 117.1875 518.742188 117.105469 C 521.066406 117.027344 523.378906 117.011719 525.683594 117.0625 C 527.988281 117.113281 530.28125 117.230469 532.5625 117.410156 C 534.84375 117.59375 537.109375 117.839844 539.363281 118.152344 C 541.613281 118.464844 543.847656 118.84375 546.066406 119.285156 C 548.285156 119.726562 550.484375 120.234375 552.664062 120.804688 C 554.839844 121.378906 556.996094 122.011719 559.132812 122.710938 C 561.265625 123.410156 563.375 124.171875 565.457031 125 C 567.542969 125.824219 569.597656 126.710938 571.628906 127.660156 Z M 571.628906 127.660156 " fill-opacity="1" fill-rule="nonzero"/><path fill="#d9d9d9" d="M 548.4375 177.257812 C 549.808594 177.898438 551.15625 178.578125 552.488281 179.300781 C 553.816406 180.027344 555.125 180.789062 556.414062 181.59375 C 557.699219 182.394531 558.960938 183.238281 560.203125 184.121094 C 561.441406 185 562.65625 185.921875 563.847656 186.878906 C 565.039062 187.835938 566.203125 188.832031 567.339844 189.863281 C 568.476562 190.898438 569.585938 191.964844 570.667969 193.070312 C 571.75 194.171875 572.804688 195.308594 573.828125 196.484375 C 574.851562 197.65625 575.847656 198.859375 576.808594 200.101562 C 577.773438 201.339844 578.707031 202.609375 579.609375 203.910156 C 580.507812 205.210938 581.378906 206.542969 582.214844 207.90625 C 583.050781 209.265625 583.855469 210.65625 584.625 212.074219 C 585.394531 213.492188 586.128906 214.9375 586.828125 216.410156 C 587.527344 217.878906 588.195312 219.375 588.824219 220.898438 C 589.457031 222.417969 590.050781 223.960938 590.609375 225.53125 C 591.167969 227.097656 591.6875 228.683594 592.171875 230.292969 C 592.65625 231.902344 593.105469 233.53125 593.515625 235.179688 C 593.925781 236.828125 594.300781 238.492188 594.632812 240.175781 C 594.96875 241.855469 595.265625 243.554688 595.527344 245.265625 C 595.785156 246.980469 596.003906 248.703125 596.1875 250.445312 C 596.367188 252.183594 596.511719 253.933594 596.617188 255.691406 C 596.722656 257.453125 596.785156 259.222656 596.8125 261 C 596.839844 262.78125 596.828125 264.566406 596.777344 266.355469 C 596.726562 268.148438 596.640625 269.945312 596.511719 271.746094 C 596.382812 273.546875 596.214844 275.351562 596.011719 277.15625 C 595.804688 278.964844 595.5625 280.769531 595.28125 282.578125 C 594.996094 284.382812 594.675781 286.1875 594.320312 287.992188 C 593.960938 289.792969 593.566406 291.589844 593.132812 293.386719 C 592.699219 295.179688 592.230469 296.96875 591.722656 298.75 C 591.214844 300.53125 590.671875 302.304688 590.089844 304.070312 C 589.507812 305.835938 588.894531 307.589844 588.242188 309.335938 C 587.589844 311.078125 586.902344 312.8125 586.179688 314.53125 C 585.460938 316.25 584.703125 317.953125 583.914062 319.640625 C 583.125 321.332031 582.300781 323.003906 581.445312 324.660156 C 580.589844 326.316406 579.699219 327.953125 578.78125 329.570312 C 577.859375 331.191406 576.90625 332.789062 575.925781 334.363281 C 574.941406 335.941406 573.929688 337.496094 572.886719 339.027344 C 571.847656 340.558594 570.777344 342.066406 569.675781 343.550781 C 568.578125 345.035156 567.449219 346.492188 566.296875 347.921875 C 565.144531 349.351562 563.964844 350.753906 562.757812 352.128906 C 561.550781 353.503906 560.324219 354.847656 559.066406 356.164062 C 557.8125 357.480469 556.535156 358.765625 555.238281 360.019531 C 553.9375 361.269531 552.617188 362.492188 551.273438 363.679688 C 549.929688 364.867188 548.566406 366.019531 547.183594 367.140625 C 545.804688 368.261719 544.402344 369.34375 542.984375 370.394531 C 541.566406 371.441406 540.132812 372.453125 538.679688 373.429688 C 537.230469 374.402344 535.765625 375.339844 534.285156 376.242188 C 532.804688 377.140625 531.3125 378 529.804688 378.820312 C 528.300781 379.644531 526.785156 380.425781 525.253906 381.164062 C 523.726562 381.90625 522.191406 382.609375 520.644531 383.265625 C 519.097656 383.925781 517.546875 384.546875 515.984375 385.121094 C 514.425781 385.699219 512.859375 386.230469 511.289062 386.722656 C 509.714844 387.214844 508.140625 387.664062 506.5625 388.070312 C 504.984375 388.476562 503.402344 388.835938 501.824219 389.15625 C 500.242188 389.476562 498.660156 389.75 497.078125 389.980469 C 495.496094 390.210938 493.917969 390.398438 492.339844 390.542969 C 490.765625 390.6875 489.191406 390.785156 487.625 390.839844 C 486.054688 390.894531 484.492188 390.902344 482.9375 390.871094 C 481.378906 390.835938 479.832031 390.757812 478.289062 390.632812 C 476.75 390.511719 475.21875 390.34375 473.695312 390.132812 C 472.175781 389.921875 470.664062 389.667969 469.167969 389.367188 C 467.667969 389.070312 466.183594 388.726562 464.710938 388.339844 C 463.242188 387.953125 461.785156 387.523438 460.34375 387.054688 C 458.902344 386.582031 457.476562 386.066406 456.070312 385.507812 C 454.660156 384.953125 453.273438 384.351562 451.902344 383.710938 C 450.53125 383.070312 449.179688 382.390625 447.851562 381.667969 C 446.519531 380.941406 445.210938 380.179688 443.925781 379.375 C 442.640625 378.574219 441.375 377.730469 440.136719 376.847656 C 438.898438 375.96875 437.683594 375.046875 436.492188 374.089844 C 435.300781 373.132812 434.136719 372.136719 433 371.105469 C 431.863281 370.070312 430.753906 369.003906 429.671875 367.898438 C 428.589844 366.796875 427.535156 365.660156 426.511719 364.484375 C 425.488281 363.3125 424.492188 362.109375 423.527344 360.871094 C 422.566406 359.628906 421.632812 358.359375 420.730469 357.058594 C 419.828125 355.757812 418.960938 354.425781 418.125 353.0625 C 417.289062 351.703125 416.484375 350.3125 415.714844 348.894531 C 414.945312 347.476562 414.210938 346.03125 413.511719 344.558594 C 412.808594 343.089844 412.144531 341.59375 411.515625 340.070312 C 410.882812 338.550781 410.289062 337.007812 409.730469 335.4375 C 409.171875 333.871094 408.652344 332.285156 408.167969 330.675781 C 407.679688 329.066406 407.234375 327.4375 406.824219 325.789062 C 406.414062 324.140625 406.039062 322.476562 405.703125 320.792969 C 405.371094 319.113281 405.074219 317.414062 404.8125 315.703125 C 404.554688 313.988281 404.335938 312.265625 404.152344 310.523438 C 403.96875 308.785156 403.828125 307.035156 403.722656 305.277344 C 403.617188 303.515625 403.550781 301.746094 403.523438 299.96875 C 403.5 298.1875 403.511719 296.402344 403.558594 294.613281 C 403.609375 292.820312 403.699219 291.023438 403.828125 289.222656 C 403.957031 287.421875 404.125 285.617188 404.328125 283.8125 C 404.535156 282.003906 404.777344 280.199219 405.058594 278.390625 C 405.339844 276.585938 405.660156 274.78125 406.019531 272.976562 C 406.378906 271.175781 406.773438 269.378906 407.207031 267.582031 C 407.640625 265.789062 408.109375 264 408.617188 262.21875 C 409.125 260.4375 409.667969 258.664062 410.25 256.898438 C 410.828125 255.132812 411.445312 253.378906 412.097656 251.632812 C 412.75 249.890625 413.4375 248.15625 414.15625 246.4375 C 414.878906 244.71875 415.636719 243.015625 416.425781 241.328125 C 417.214844 239.636719 418.039062 237.964844 418.894531 236.308594 C 419.75 234.652344 420.640625 233.015625 421.558594 231.398438 C 422.480469 229.777344 423.429688 228.179688 424.414062 226.605469 C 425.394531 225.027344 426.410156 223.472656 427.449219 221.941406 C 428.492188 220.410156 429.5625 218.902344 430.664062 217.417969 C 431.761719 215.933594 432.890625 214.476562 434.042969 213.046875 C 435.195312 211.617188 436.375 210.214844 437.582031 208.839844 C 438.785156 207.464844 440.015625 206.121094 441.269531 204.804688 C 442.523438 203.488281 443.800781 202.203125 445.101562 200.949219 C 446.402344 199.699219 447.722656 198.476562 449.066406 197.289062 C 450.410156 196.101562 451.773438 194.949219 453.152344 193.828125 C 454.535156 192.707031 455.9375 191.625 457.355469 190.574219 C 458.773438 189.527344 460.207031 188.515625 461.660156 187.539062 C 463.109375 186.566406 464.574219 185.628906 466.054688 184.726562 C 467.535156 183.828125 469.027344 182.96875 470.535156 182.148438 C 472.039062 181.324219 473.554688 180.542969 475.082031 179.804688 C 476.609375 179.0625 478.148438 178.359375 479.695312 177.703125 C 481.238281 177.042969 482.792969 176.421875 484.355469 175.847656 C 485.914062 175.269531 487.480469 174.738281 489.050781 174.246094 C 490.625 173.753906 492.199219 173.304688 493.777344 172.898438 C 495.355469 172.492188 496.933594 172.132812 498.515625 171.8125 C 500.097656 171.492188 501.679688 171.21875 503.261719 170.988281 C 504.84375 170.757812 506.421875 170.570312 507.996094 170.425781 C 509.574219 170.28125 511.148438 170.183594 512.714844 170.128906 C 514.285156 170.074219 515.847656 170.066406 517.402344 170.097656 C 518.960938 170.132812 520.507812 170.210938 522.050781 170.335938 C 523.589844 170.457031 525.121094 170.625 526.640625 170.835938 C 528.164062 171.046875 529.671875 171.300781 531.171875 171.601562 C 532.671875 171.898438 534.15625 172.242188 535.625 172.628906 C 537.097656 173.015625 538.554688 173.445312 539.996094 173.914062 C 541.4375 174.386719 542.863281 174.902344 544.269531 175.460938 C 545.675781 176.015625 547.066406 176.617188 548.4375 177.257812 Z M 548.4375 177.257812 " fill-opacity="1" fill-rule="nonzero"/><path fill="#000000" d="M 521.851562 234.109375 C 523.085938 234.6875 524.28125 235.335938 525.4375 236.058594 C 526.59375 236.78125 527.707031 237.570312 528.773438 238.433594 C 529.84375 239.292969 530.867188 240.222656 531.839844 241.214844 C 532.8125 242.207031 533.730469 243.257812 534.597656 244.371094 C 535.464844 245.484375 536.273438 246.652344 537.023438 247.878906 C 537.777344 249.101562 538.46875 250.375 539.097656 251.699219 C 539.726562 253.019531 540.292969 254.386719 540.796875 255.796875 C 541.296875 257.203125 541.730469 258.648438 542.101562 260.128906 C 542.46875 261.613281 542.769531 263.121094 543.003906 264.660156 C 543.234375 266.199219 543.398438 267.761719 543.492188 269.34375 C 543.585938 270.929688 543.613281 272.523438 543.566406 274.136719 C 543.519531 275.746094 543.40625 277.363281 543.222656 278.988281 C 543.035156 280.613281 542.78125 282.234375 542.460938 283.855469 C 542.140625 285.476562 541.75 287.085938 541.292969 288.6875 C 540.835938 290.289062 540.316406 291.875 539.730469 293.441406 C 539.144531 295.011719 538.496094 296.554688 537.785156 298.074219 C 537.074219 299.59375 536.308594 301.078125 535.480469 302.535156 C 534.652344 303.988281 533.769531 305.40625 532.832031 306.78125 C 531.894531 308.160156 530.910156 309.492188 529.871094 310.777344 C 528.835938 312.0625 527.753906 313.296875 526.625 314.480469 C 525.496094 315.664062 524.328125 316.789062 523.121094 317.855469 C 521.914062 318.925781 520.675781 319.929688 519.398438 320.871094 C 518.125 321.816406 516.824219 322.691406 515.492188 323.5 C 514.160156 324.308594 512.808594 325.046875 511.4375 325.714844 C 510.0625 326.378906 508.675781 326.972656 507.273438 327.488281 C 505.867188 328.007812 504.457031 328.449219 503.039062 328.816406 C 501.621094 329.179688 500.199219 329.464844 498.777344 329.671875 C 497.359375 329.882812 495.941406 330.011719 494.53125 330.058594 C 493.121094 330.109375 491.722656 330.078125 490.339844 329.96875 C 488.953125 329.855469 487.589844 329.667969 486.242188 329.398438 C 484.894531 329.128906 483.574219 328.785156 482.277344 328.359375 C 480.980469 327.933594 479.71875 327.433594 478.484375 326.859375 C 477.253906 326.28125 476.058594 325.632812 474.902344 324.910156 C 473.746094 324.1875 472.632812 323.398438 471.5625 322.535156 C 470.496094 321.675781 469.472656 320.746094 468.5 319.753906 C 467.527344 318.761719 466.609375 317.710938 465.742188 316.597656 C 464.875 315.484375 464.066406 314.316406 463.3125 313.089844 C 462.5625 311.867188 461.871094 310.59375 461.242188 309.269531 C 460.613281 307.949219 460.046875 306.582031 459.542969 305.171875 C 459.042969 303.765625 458.605469 302.320312 458.238281 300.839844 C 457.867188 299.355469 457.566406 297.847656 457.335938 296.308594 C 457.101562 294.769531 456.941406 293.207031 456.84375 291.625 C 456.75 290.039062 456.726562 288.445312 456.773438 286.832031 C 456.820312 285.222656 456.933594 283.605469 457.117188 281.980469 C 457.304688 280.355469 457.554688 278.734375 457.878906 277.113281 C 458.199219 275.492188 458.589844 273.882812 459.046875 272.28125 C 459.5 270.679688 460.023438 269.09375 460.609375 267.527344 C 461.195312 265.957031 461.84375 264.414062 462.554688 262.894531 C 463.261719 261.375 464.03125 259.890625 464.859375 258.433594 C 465.6875 256.980469 466.570312 255.5625 467.507812 254.1875 C 468.441406 252.808594 469.429688 251.476562 470.46875 250.191406 C 471.503906 248.90625 472.585938 247.671875 473.714844 246.488281 C 474.84375 245.304688 476.007812 244.179688 477.214844 243.113281 C 478.421875 242.042969 479.664062 241.039062 480.9375 240.097656 C 482.214844 239.152344 483.515625 238.277344 484.847656 237.46875 C 486.179688 236.660156 487.53125 235.921875 488.902344 235.257812 C 490.277344 234.589844 491.664062 233.996094 493.066406 233.480469 C 494.46875 232.960938 495.882812 232.519531 497.300781 232.152344 C 498.71875 231.789062 500.140625 231.503906 501.558594 231.296875 C 502.980469 231.085938 504.398438 230.957031 505.808594 230.910156 C 507.21875 230.859375 508.613281 230.890625 510 231 C 511.386719 231.113281 512.75 231.300781 514.097656 231.570312 C 515.445312 231.839844 516.765625 232.183594 518.0625 232.609375 C 519.359375 233.035156 520.621094 233.535156 521.851562 234.109375 Z M 521.851562 234.109375 " fill-opacity="1" fill-rule="nonzero"/><path fill="#a6a6a6" d="M 378.230469 198.410156 C 378.230469 198.410156 346.121094 93.128906 313.511719 77.035156 C 280.902344 60.941406 291.488281 157.832031 291.488281 157.832031 Z M 378.230469 198.410156 " fill-opacity="1" fill-rule="nonzero"/><path fill="#a6a6a6" d="M 361.042969 230.859375 C 361.042969 230.859375 265.230469 259.140625 252.097656 234.15625 C 238.964844 209.171875 272.472656 198.410156 272.472656 198.410156 Z M 361.042969 230.859375 " fill-opacity="1" fill-rule="nonzero"/><path fill="#737373" d="M 312.976562 170.375 C 312.667969 170.375 312.367188 170.316406 312.078125 170.203125 C 311.789062 170.089844 311.527344 169.929688 311.300781 169.71875 C 311.070312 169.511719 310.886719 169.265625 310.75 168.988281 C 310.613281 168.710938 310.53125 168.414062 310.503906 168.105469 L 304.679688 102.664062 C 304.667969 102.347656 304.71875 102.039062 304.828125 101.742188 C 304.933594 101.441406 305.09375 101.175781 305.304688 100.9375 C 305.515625 100.699219 305.765625 100.507812 306.046875 100.367188 C 306.332031 100.222656 306.632812 100.136719 306.949219 100.109375 C 307.265625 100.082031 307.574219 100.113281 307.878906 100.203125 C 308.183594 100.292969 308.460938 100.4375 308.710938 100.632812 C 308.960938 100.832031 309.164062 101.066406 309.324219 101.339844 C 309.484375 101.617188 309.585938 101.910156 309.632812 102.226562 L 315.460938 167.664062 C 315.488281 167.996094 315.453125 168.316406 315.355469 168.628906 C 315.253906 168.945312 315.101562 169.226562 314.886719 169.480469 C 314.675781 169.734375 314.425781 169.9375 314.132812 170.089844 C 313.839844 170.242188 313.53125 170.335938 313.203125 170.363281 Z M 312.976562 170.375 " fill-opacity="1" fill-rule="nonzero"/><path fill="#737373" d="M 332.03125 179.28125 C 331.714844 179.28125 331.414062 179.226562 331.121094 179.109375 C 330.828125 178.996094 330.566406 178.832031 330.335938 178.617188 C 330.105469 178.40625 329.921875 178.15625 329.785156 177.871094 C 329.648438 177.589844 329.570312 177.289062 329.546875 176.976562 L 326.691406 136.996094 C 326.652344 136.660156 326.679688 136.324219 326.773438 136 C 326.867188 135.671875 327.023438 135.375 327.242188 135.113281 C 327.460938 134.847656 327.71875 134.640625 328.023438 134.484375 C 328.324219 134.328125 328.648438 134.234375 328.988281 134.210938 C 329.328125 134.1875 329.660156 134.230469 329.980469 134.34375 C 330.304688 134.453125 330.589844 134.625 330.84375 134.855469 C 331.09375 135.082031 331.292969 135.355469 331.433594 135.664062 C 331.574219 135.972656 331.648438 136.300781 331.65625 136.640625 L 334.464844 176.621094 C 334.488281 176.949219 334.445312 177.269531 334.34375 177.582031 C 334.238281 177.894531 334.078125 178.175781 333.863281 178.425781 C 333.644531 178.675781 333.390625 178.875 333.097656 179.019531 C 332.800781 179.167969 332.492188 179.257812 332.160156 179.28125 Z M 332.03125 179.28125 " fill-opacity="1" fill-rule="nonzero"/><path fill="#737373" d="M 273.277344 228.589844 C 272.976562 228.59375 272.683594 228.542969 272.398438 228.441406 C 272.117188 228.335938 271.859375 228.183594 271.632812 227.988281 C 271.402344 227.789062 271.214844 227.558594 271.070312 227.292969 C 270.929688 227.027344 270.835938 226.742188 270.792969 226.445312 C 270.753906 226.144531 270.765625 225.847656 270.835938 225.554688 C 270.902344 225.257812 271.019531 224.984375 271.1875 224.734375 C 271.355469 224.484375 271.5625 224.269531 271.808594 224.09375 C 272.050781 223.917969 272.320312 223.789062 272.613281 223.710938 L 312.3125 212.65625 C 312.628906 212.566406 312.953125 212.539062 313.28125 212.578125 C 313.609375 212.613281 313.917969 212.714844 314.207031 212.875 C 314.492188 213.03125 314.742188 213.242188 314.945312 213.5 C 315.152344 213.757812 315.300781 214.046875 315.390625 214.363281 C 315.484375 214.679688 315.511719 215.003906 315.472656 215.332031 C 315.4375 215.660156 315.339844 215.96875 315.179688 216.257812 C 315.019531 216.546875 314.808594 216.792969 314.550781 217 C 314.292969 217.203125 314.007812 217.351562 313.691406 217.445312 L 273.945312 228.507812 C 273.726562 228.5625 273.503906 228.589844 273.277344 228.589844 Z M 273.277344 228.589844 " fill-opacity="1" fill-rule="nonzero"/><path fill="#737373" d="M 506.339844 275.652344 L 506.097656 275.804688 C 505.117188 276.363281 504.066406 276.699219 502.941406 276.8125 C 501.820312 276.921875 500.722656 276.804688 499.652344 276.449219 L 282.871094 205.144531 C 281.664062 204.746094 280.496094 204.257812 279.363281 203.675781 C 278.234375 203.09375 277.15625 202.429688 276.128906 201.679688 C 275.105469 200.925781 274.144531 200.101562 273.246094 199.199219 C 272.351562 198.300781 271.53125 197.332031 270.785156 196.304688 C 270.039062 195.273438 269.378906 194.191406 268.804688 193.058594 C 268.230469 191.921875 267.746094 190.75 267.355469 189.542969 C 266.964844 188.332031 266.671875 187.101562 266.472656 185.84375 C 266.277344 184.589844 266.175781 183.324219 266.179688 182.054688 C 266.175781 179.433594 266.589844 176.878906 267.425781 174.390625 C 267.699219 173.574219 268.015625 172.769531 268.378906 171.984375 C 268.738281 171.199219 269.140625 170.4375 269.582031 169.695312 C 270.023438 168.953125 270.503906 168.234375 271.023438 167.542969 C 271.542969 166.851562 272.097656 166.191406 272.683594 165.558594 C 273.273438 164.929688 273.894531 164.328125 274.546875 163.761719 C 275.203125 163.199219 275.882812 162.667969 276.59375 162.175781 C 277.300781 161.683594 278.035156 161.226562 278.792969 160.8125 C 279.550781 160.398438 280.328125 160.027344 281.128906 159.695312 C 281.925781 159.363281 282.738281 159.074219 283.566406 158.828125 C 284.394531 158.582031 285.234375 158.382812 286.085938 158.226562 C 286.933594 158.074219 287.789062 157.960938 288.652344 157.898438 C 289.511719 157.835938 290.375 157.816406 291.238281 157.84375 C 292.101562 157.871094 292.964844 157.945312 293.820312 158.066406 C 294.675781 158.183594 295.519531 158.347656 296.359375 158.558594 C 297.199219 158.769531 298.023438 159.023438 298.832031 159.320312 C 299.644531 159.617188 300.4375 159.957031 301.210938 160.339844 L 505.945312 261.601562 C 507.359375 262.292969 508.460938 263.320312 509.253906 264.683594 C 509.523438 265.140625 509.746094 265.617188 509.917969 266.113281 C 510.09375 266.613281 510.214844 267.125 510.289062 267.648438 C 510.359375 268.171875 510.382812 268.695312 510.347656 269.222656 C 510.316406 269.75 510.234375 270.269531 510.097656 270.78125 C 509.960938 271.289062 509.777344 271.78125 509.542969 272.257812 C 509.308594 272.730469 509.03125 273.175781 508.710938 273.59375 C 508.386719 274.011719 508.027344 274.394531 507.628906 274.742188 C 507.226562 275.089844 506.800781 275.390625 506.339844 275.652344 Z M 506.339844 275.652344 " fill-opacity="1" fill-rule="nonzero"/></svg>