<svg xmlns="http://www.w3.org/2000/svg" xmlns:xlink="http://www.w3.org/1999/xlink" width="1280" zoomAndPan="magnify" viewBox="0 0 960 599.999999" height="800" preserveAspectRatio="xMidYMid meet" version="1.0"><defs><clipPath id="4c9936260c"><path d="M 282.804688 32.859375 L 677.304688 32.859375 L 677.304688 566.859375 L 282.804688 566.859375 Z M 282.804688 32.859375 " clip-rule="nonzero"/></clipPath></defs><g clip-path="url(#4c9936260c)"><path fill="#000000" d="M 657.535156 249.34375 L 630.28125 249.34375 L 630.28125 183.128906 C 630.386719 100.25 562.941406 32.859375 480 32.859375 C 397.054688 32.859375 329.609375 100.25 329.609375 183.128906 L 329.609375 249.34375 L 302.460938 249.34375 C 291.667969 249.34375 282.902344 258.101562 282.902344 268.890625 L 282.902344 547.421875 C 282.902344 558.101562 291.667969 566.859375 302.460938 566.859375 L 657.644531 566.859375 C 668.4375 566.859375 677.203125 558.101562 677.203125 547.316406 L 677.203125 268.890625 C 677.097656 258.101562 668.332031 249.34375 657.535156 249.34375 Z M 368.730469 183.128906 C 368.730469 121.824219 418.648438 71.949219 480 71.949219 C 541.351562 71.949219 591.265625 121.824219 591.265625 183.128906 L 591.265625 249.34375 L 368.730469 249.34375 Z M 499.558594 422.148438 L 499.558594 473.519531 C 499.558594 484.304688 490.792969 493.0625 480 493.0625 C 469.203125 493.0625 460.4375 484.304688 460.4375 473.519531 L 460.4375 422.148438 C 446.972656 415.097656 437.78125 401 437.78125 384.875 C 437.78125 361.589844 456.699219 342.792969 479.890625 342.792969 C 503.195312 342.792969 522.003906 361.699219 522.003906 384.875 C 522.21875 401 513.027344 415.097656 499.558594 422.148438 Z M 499.558594 422.148438 " fill-opacity="1" fill-rule="nonzero"/></g></svg>