<svg xmlns="http://www.w3.org/2000/svg" xmlns:xlink="http://www.w3.org/1999/xlink" width="1366" zoomAndPan="magnify" viewBox="0 0 1024.5 576" height="768" preserveAspectRatio="xMidYMid meet" version="1.0"><defs><clipPath id="ca6a2aa04a"><path d="M 288 63.421875 L 736 63.421875 L 736 510 L 288 510 Z M 288 63.421875 " clip-rule="nonzero"/></clipPath></defs><g clip-path="url(#ca6a2aa04a)"><path fill="#292a35" d="M 511.453125 62.914062 C 510.238281 62.933594 509.027344 63.011719 507.820312 63.148438 C 506.613281 63.285156 505.414062 63.480469 504.226562 63.734375 C 503.039062 63.988281 501.863281 64.300781 500.707031 64.667969 C 499.550781 65.039062 498.414062 65.464844 497.296875 65.945312 C 496.183594 66.425781 495.09375 66.960938 494.027344 67.550781 C 492.964844 68.136719 491.933594 68.777344 490.933594 69.464844 C 489.933594 70.15625 488.96875 70.890625 488.039062 71.675781 C 487.113281 72.460938 486.222656 73.289062 485.378906 74.160156 C 484.53125 75.03125 483.726562 75.941406 482.972656 76.890625 C 482.214844 77.839844 481.503906 78.824219 480.84375 79.84375 C 480.183594 80.863281 479.574219 81.914062 479.015625 82.996094 C 478.457031 84.074219 477.953125 85.179688 477.503906 86.308594 C 477.054688 87.4375 476.664062 88.585938 476.324219 89.75 C 475.988281 90.917969 475.710938 92.101562 475.492188 93.296875 C 475.269531 94.488281 475.109375 95.691406 475.003906 96.902344 C 474.902344 98.113281 474.859375 99.328125 474.878906 100.542969 L 474.878906 249.019531 L 326.398438 249.019531 C 325.171875 249.003906 323.945312 249.046875 322.726562 249.152344 C 321.503906 249.253906 320.289062 249.417969 319.082031 249.644531 C 317.875 249.867188 316.683594 250.152344 315.507812 250.496094 C 314.328125 250.835938 313.167969 251.238281 312.03125 251.695312 C 310.894531 252.152344 309.78125 252.664062 308.691406 253.230469 C 307.605469 253.800781 306.546875 254.421875 305.523438 255.09375 C 304.496094 255.765625 303.507812 256.488281 302.550781 257.257812 C 301.597656 258.027344 300.683594 258.84375 299.808594 259.707031 C 298.9375 260.566406 298.105469 261.46875 297.324219 262.414062 C 296.539062 263.355469 295.804688 264.335938 295.117188 265.351562 C 294.429688 266.367188 293.792969 267.417969 293.210938 268.496094 C 292.628906 269.574219 292.101562 270.679688 291.625 271.8125 C 291.152344 272.945312 290.738281 274.097656 290.378906 275.269531 C 290.019531 276.441406 289.71875 277.632812 289.476562 278.832031 C 289.234375 280.035156 289.054688 281.25 288.933594 282.46875 C 288.8125 283.691406 288.75 284.914062 288.75 286.140625 C 288.75 287.367188 288.8125 288.589844 288.933594 289.8125 C 289.054688 291.03125 289.234375 292.246094 289.476562 293.449219 C 289.71875 294.648438 290.019531 295.839844 290.378906 297.011719 C 290.738281 298.183594 291.152344 299.335938 291.625 300.46875 C 292.101562 301.601562 292.628906 302.707031 293.210938 303.785156 C 293.792969 304.863281 294.429688 305.914062 295.117188 306.929688 C 295.804688 307.945312 296.539062 308.925781 297.324219 309.867188 C 298.105469 310.8125 298.9375 311.714844 299.808594 312.574219 C 300.683594 313.4375 301.597656 314.253906 302.550781 315.023438 C 303.507812 315.792969 304.496094 316.515625 305.523438 317.1875 C 306.546875 317.859375 307.605469 318.480469 308.691406 319.050781 C 309.78125 319.617188 310.894531 320.128906 312.03125 320.585938 C 313.167969 321.042969 314.328125 321.445312 315.507812 321.785156 C 316.683594 322.128906 317.875 322.414062 319.082031 322.636719 C 320.289062 322.863281 321.503906 323.027344 322.726562 323.128906 C 323.945312 323.234375 325.171875 323.277344 326.398438 323.261719 L 474.878906 323.261719 L 474.878906 471.738281 C 474.859375 472.964844 474.902344 474.191406 475.007812 475.414062 C 475.109375 476.636719 475.277344 477.847656 475.5 479.054688 C 475.722656 480.261719 476.007812 481.453125 476.351562 482.632812 C 476.691406 483.808594 477.09375 484.96875 477.550781 486.105469 C 478.007812 487.242188 478.519531 488.355469 479.089844 489.445312 C 479.65625 490.53125 480.277344 491.589844 480.949219 492.613281 C 481.621094 493.640625 482.34375 494.632812 483.113281 495.585938 C 483.882812 496.539062 484.699219 497.453125 485.5625 498.328125 C 486.421875 499.203125 487.324219 500.03125 488.269531 500.8125 C 489.210938 501.597656 490.191406 502.332031 491.207031 503.019531 C 492.226562 503.707031 493.273438 504.34375 494.351562 504.925781 C 495.433594 505.507812 496.539062 506.039062 497.667969 506.511719 C 498.800781 506.984375 499.953125 507.402344 501.125 507.757812 C 502.300781 508.117188 503.488281 508.417969 504.691406 508.660156 C 505.894531 508.902344 507.105469 509.082031 508.324219 509.203125 C 509.546875 509.328125 510.769531 509.386719 511.996094 509.386719 C 513.222656 509.386719 514.449219 509.328125 515.667969 509.203125 C 516.890625 509.082031 518.101562 508.902344 519.304688 508.660156 C 520.507812 508.417969 521.695312 508.117188 522.867188 507.757812 C 524.039062 507.402344 525.191406 506.984375 526.324219 506.511719 C 527.457031 506.039062 528.5625 505.507812 529.640625 504.925781 C 530.71875 504.34375 531.769531 503.707031 532.785156 503.019531 C 533.800781 502.332031 534.78125 501.597656 535.722656 500.8125 C 536.667969 500.03125 537.570312 499.203125 538.433594 498.328125 C 539.292969 497.453125 540.109375 496.539062 540.878906 495.585938 C 541.652344 494.632812 542.371094 493.640625 543.042969 492.613281 C 543.71875 491.589844 544.335938 490.53125 544.90625 489.445312 C 545.472656 488.355469 545.984375 487.242188 546.441406 486.105469 C 546.898438 484.96875 547.300781 483.808594 547.644531 482.632812 C 547.984375 481.453125 548.269531 480.261719 548.492188 479.054688 C 548.71875 477.847656 548.882812 476.636719 548.984375 475.414062 C 549.089844 474.191406 549.132812 472.964844 549.117188 471.738281 L 549.117188 323.261719 L 697.59375 323.261719 C 698.820312 323.277344 700.046875 323.234375 701.269531 323.128906 C 702.492188 323.027344 703.707031 322.863281 704.910156 322.636719 C 706.117188 322.414062 707.308594 322.128906 708.488281 321.785156 C 709.664062 321.445312 710.824219 321.042969 711.960938 320.585938 C 713.101562 320.128906 714.214844 319.617188 715.300781 319.050781 C 716.386719 318.480469 717.445312 317.859375 718.472656 317.1875 C 719.496094 316.515625 720.488281 315.792969 721.441406 315.023438 C 722.394531 314.253906 723.308594 313.4375 724.183594 312.574219 C 725.058594 311.714844 725.886719 310.8125 726.671875 309.867188 C 727.453125 308.925781 728.191406 307.945312 728.875 306.929688 C 729.5625 305.910156 730.199219 304.863281 730.78125 303.785156 C 731.363281 302.707031 731.894531 301.601562 732.367188 300.46875 C 732.839844 299.335938 733.257812 298.183594 733.617188 297.011719 C 733.976562 295.839844 734.277344 294.648438 734.515625 293.449219 C 734.757812 292.246094 734.941406 291.03125 735.0625 289.8125 C 735.183594 288.589844 735.242188 287.367188 735.242188 286.140625 C 735.242188 284.914062 735.183594 283.691406 735.0625 282.46875 C 734.941406 281.25 734.757812 280.035156 734.515625 278.832031 C 734.277344 277.632812 733.976562 276.441406 733.617188 275.269531 C 733.257812 274.097656 732.839844 272.945312 732.367188 271.8125 C 731.894531 270.679688 731.363281 269.574219 730.78125 268.496094 C 730.199219 267.417969 729.5625 266.367188 728.875 265.351562 C 728.191406 264.335938 727.453125 263.355469 726.671875 262.414062 C 725.886719 261.46875 725.058594 260.566406 724.183594 259.707031 C 723.308594 258.84375 722.394531 258.027344 721.441406 257.257812 C 720.488281 256.488281 719.496094 255.765625 718.472656 255.09375 C 717.445312 254.421875 716.386719 253.800781 715.300781 253.230469 C 714.214844 252.664062 713.101562 252.152344 711.960938 251.695312 C 710.824219 251.238281 709.664062 250.835938 708.488281 250.496094 C 707.308594 250.152344 706.117188 249.867188 704.910156 249.644531 C 703.707031 249.417969 702.492188 249.253906 701.269531 249.152344 C 700.046875 249.046875 698.820312 249.003906 697.59375 249.019531 L 549.117188 249.019531 L 549.117188 100.542969 C 549.132812 99.304688 549.089844 98.070312 548.980469 96.835938 C 548.875 95.601562 548.707031 94.378906 548.476562 93.160156 C 548.25 91.945312 547.960938 90.742188 547.609375 89.554688 C 547.261719 88.367188 546.851562 87.203125 546.386719 86.054688 C 545.921875 84.90625 545.398438 83.789062 544.820312 82.691406 C 544.242188 81.597656 543.609375 80.535156 542.925781 79.503906 C 542.242188 78.472656 541.507812 77.476562 540.722656 76.519531 C 539.941406 75.5625 539.109375 74.648438 538.234375 73.773438 C 537.359375 72.898438 536.441406 72.066406 535.484375 71.285156 C 534.523438 70.5 533.527344 69.769531 532.496094 69.085938 C 531.464844 68.402344 530.402344 67.769531 529.304688 67.195312 C 528.210938 66.617188 527.089844 66.09375 525.941406 65.628906 C 524.796875 65.164062 523.628906 64.757812 522.441406 64.410156 C 521.253906 64.0625 520.050781 63.773438 518.835938 63.546875 C 517.617188 63.316406 516.394531 63.152344 515.160156 63.046875 C 513.925781 62.941406 512.691406 62.898438 511.453125 62.914062 Z M 511.453125 62.914062 " fill-opacity="1" fill-rule="nonzero"/></g></svg>