<svg xmlns="http://www.w3.org/2000/svg" xmlns:xlink="http://www.w3.org/1999/xlink" width="1280" zoomAndPan="magnify" viewBox="0 0 960 599.999999" height="800" preserveAspectRatio="xMidYMid meet" version="1.0"><path fill="#000000" d="M 428.328125 28.953125 C 306.09375 30.289062 208.085938 130.488281 209.433594 252.726562 C 210.765625 374.945312 310.953125 472.960938 433.199219 471.617188 C 478.339844 471.125 522.246094 456.828125 559.054688 430.65625 L 685.472656 557.054688 C 699.949219 571.339844 723.285156 571.191406 737.574219 556.695312 C 751.714844 542.363281 751.714844 519.304688 737.574219 504.949219 L 611.152344 378.554688 C 682.003906 278.945312 658.671875 140.746094 559.054688 69.890625 C 520.890625 42.777344 475.132812 28.4375 428.328125 28.953125 Z M 425.667969 67.257812 C 526.613281 64.441406 610.738281 143.972656 613.558594 244.9375 C 613.601562 246.710938 613.640625 248.488281 613.640625 250.257812 C 613.679688 351.242188 531.835938 433.144531 430.863281 433.203125 C 329.875 433.242188 247.964844 351.417969 247.917969 250.425781 C 247.917969 250.375 247.917969 250.324219 247.917969 250.265625 C 247.808594 151.1875 326.617188 70.03125 425.667969 67.257812 Z M 425.667969 67.257812 " fill-opacity="1" fill-rule="nonzero"/><path fill="#000000" d="M 381.410156 114.65625 C 391.421875 111.078125 402.433594 116.273438 406.023438 126.28125 C 409.585938 136.21875 404.484375 147.175781 394.578125 150.84375 C 352.769531 166.058594 324.941406 205.796875 324.941406 250.277344 C 324.941406 260.917969 316.324219 269.535156 305.695312 269.535156 C 295.066406 269.535156 286.449219 260.917969 286.449219 250.277344 C 286.453125 189.609375 324.394531 135.40625 381.410156 114.65625 Z M 381.410156 114.65625 " fill-opacity="1" fill-rule="nonzero"/></svg>