<svg xmlns="http://www.w3.org/2000/svg" xmlns:xlink="http://www.w3.org/1999/xlink" width="1366" zoomAndPan="magnify" viewBox="0 0 1024.5 576" height="768" preserveAspectRatio="xMidYMid meet" version="1.0"><defs><clipPath id="f352c73acb"><path d="M 239.066406 15.066406 L 784.410156 15.066406 L 784.410156 560.800781 L 239.066406 560.800781 Z M 239.066406 15.066406 " clip-rule="nonzero"/></clipPath></defs><g clip-path="url(#f352c73acb)"><path fill="#100f0d" d="M 510.042969 184.152344 C 566.777344 183.085938 613.578125 228.242188 614.644531 284.976562 C 614.644531 285.996094 614.644531 286.964844 614.644531 287.980469 C 615.273438 344.714844 569.828125 391.226562 513.09375 391.855469 C 456.359375 392.484375 409.847656 347.039062 409.21875 290.304688 C 409.21875 289.53125 409.21875 288.753906 409.21875 287.980469 C 408.589844 231.535156 453.597656 185.171875 510.042969 184.152344 Z M 521.039062 15.308594 C 505.730469 14.773438 490.371094 15.550781 475.207031 17.585938 C 469.828125 18.3125 465.421875 22.089844 463.820312 27.226562 L 448.707031 76.449219 C 447.398438 80.617188 444.199219 83.960938 440.082031 85.414062 C 432.960938 87.980469 425.984375 90.839844 419.152344 94.085938 C 415.179688 96.023438 410.527344 95.925781 406.652344 93.84375 L 361.207031 69.714844 C 356.410156 67.195312 350.597656 67.679688 346.332031 70.976562 C 326.855469 85.753906 309.511719 103.144531 294.683594 122.574219 C 291.390625 126.886719 290.90625 132.652344 293.425781 137.449219 L 317.601562 182.941406 C 319.683594 186.769531 319.878906 191.421875 318.085938 195.394531 C 314.792969 202.226562 311.886719 209.203125 309.367188 216.324219 C 307.910156 220.492188 304.570312 223.6875 300.355469 224.949219 L 251.179688 240.113281 C 245.992188 241.664062 242.214844 246.121094 241.535156 251.449219 C 238.242188 275.722656 238.242188 300.238281 241.535156 324.511719 C 242.214844 329.839844 245.992188 334.296875 251.179688 335.847656 L 300.355469 351.011719 C 304.570312 352.273438 307.910156 355.46875 309.367188 359.636719 C 311.886719 366.757812 314.792969 373.734375 318.085938 380.566406 C 319.878906 384.539062 319.683594 389.191406 317.601562 393.019531 L 293.425781 438.511719 C 290.90625 443.261719 291.390625 449.074219 294.683594 453.386719 C 309.511719 472.816406 326.855469 490.160156 346.332031 504.984375 C 350.597656 508.28125 356.410156 508.714844 361.207031 506.246094 L 406.652344 482.117188 C 410.527344 480.035156 415.179688 479.9375 419.152344 481.828125 C 425.984375 485.074219 432.960938 487.980469 440.082031 490.5 C 444.199219 491.953125 447.398438 495.296875 448.707031 499.460938 L 463.820312 548.6875 C 465.421875 553.871094 469.828125 557.648438 475.207031 558.328125 C 499.433594 561.621094 523.996094 561.621094 548.222656 558.328125 C 553.550781 557.648438 558.007812 553.871094 559.605469 548.6875 L 574.722656 499.460938 C 576.03125 495.296875 579.226562 491.953125 583.347656 490.5 C 590.46875 487.980469 597.492188 485.074219 604.277344 481.828125 C 608.25 479.9375 612.851562 480.035156 616.726562 482.117188 L 662.222656 506.246094 C 667.019531 508.714844 672.832031 508.28125 677.097656 504.984375 C 696.574219 490.160156 713.917969 472.816406 728.742188 453.386719 C 732.039062 449.074219 732.523438 443.261719 730.003906 438.511719 L 705.875 393.019531 C 703.742188 389.191406 703.597656 384.539062 705.390625 380.566406 C 708.636719 373.734375 711.542969 366.757812 714.0625 359.636719 C 715.515625 355.46875 718.859375 352.273438 723.074219 351.011719 L 772.300781 335.847656 C 777.433594 334.25 781.214844 329.839844 781.941406 324.511719 C 785.1875 300.238281 785.1875 275.722656 781.941406 251.449219 C 781.214844 246.121094 777.433594 241.664062 772.300781 240.113281 L 723.074219 224.949219 C 718.859375 223.6875 715.515625 220.492188 714.0625 216.324219 C 711.542969 209.203125 708.636719 202.226562 705.390625 195.394531 C 703.597656 191.421875 703.742188 186.769531 705.875 182.941406 L 730.003906 137.449219 C 732.523438 132.652344 732.039062 126.886719 728.742188 122.574219 C 713.917969 103.144531 696.574219 85.753906 677.097656 70.976562 C 672.832031 67.679688 667.019531 67.195312 662.222656 69.714844 L 616.726562 93.84375 C 612.851562 95.925781 608.25 96.023438 604.277344 94.132812 C 597.492188 90.886719 590.46875 87.980469 583.347656 85.460938 C 579.226562 84.007812 576.03125 80.664062 574.722656 76.449219 L 559.605469 27.273438 C 558.007812 22.089844 553.550781 18.3125 548.222656 17.585938 C 539.210938 16.375 530.148438 15.597656 521.039062 15.308594 " fill-opacity="1" fill-rule="nonzero"/></g></svg>