<svg xmlns="http://www.w3.org/2000/svg" xmlns:xlink="http://www.w3.org/1999/xlink" width="1366" zoomAndPan="magnify" viewBox="0 0 1024.5 576" height="768" preserveAspectRatio="xMidYMid meet" version="1.0"><defs><clipPath id="afed9b6ba5"><path d="M 201.847656 37.148438 L 822.148438 37.148438 L 822.148438 538.65625 L 201.847656 538.65625 Z M 201.847656 37.148438 " clip-rule="nonzero"/></clipPath></defs><g clip-path="url(#afed9b6ba5)"><path fill="#000000" d="M 822.148438 96.488281 C 799.082031 106.566406 774.492188 113.242188 748.871094 116.476562 C 775.238281 100.8125 795.355469 76.1875 804.816406 46.515625 C 780.234375 61.101562 753.101562 71.410156 724.179688 77.15625 C 700.835938 52.414062 667.574219 37.097656 631.289062 37.097656 C 560.882812 37.097656 504.207031 93.984375 504.207031 163.71875 C 504.207031 173.753906 505.0625 183.394531 507.15625 192.585938 C 401.429688 187.445312 307.882812 137.015625 245.035156 60.175781 C 234.0625 79.121094 227.628906 100.8125 227.628906 124.160156 C 227.628906 167.996094 250.308594 206.859375 284.121094 229.351562 C 263.6875 228.972656 243.640625 223.070312 226.660156 213.773438 L 226.660156 215.15625 C 226.660156 276.667969 270.742188 327.761719 328.542969 339.53125 C 318.191406 342.351562 306.914062 343.699219 295.203125 343.699219 C 287.066406 343.699219 278.84375 343.230469 271.128906 341.542969 C 287.609375 391.671875 334.363281 428.523438 389.957031 429.71875 C 346.691406 463.410156 291.753906 483.707031 232.289062 483.707031 C 221.863281 483.707031 211.855469 483.25 201.851562 481.972656 C 258.179688 518.132812 324.941406 538.773438 396.941406 538.773438 C 630.941406 538.773438 758.882812 345.824219 758.882812 178.574219 C 758.882812 172.976562 758.679688 167.570312 758.414062 162.210938 C 783.648438 144.382812 804.855469 122.117188 822.148438 96.488281 Z M 822.148438 96.488281 " fill-opacity="1" fill-rule="nonzero"/></g></svg>