<svg xmlns="http://www.w3.org/2000/svg" xmlns:xlink="http://www.w3.org/1999/xlink" width="1280" zoomAndPan="magnify" viewBox="0 0 960 599.999999" height="800" preserveAspectRatio="xMidYMid meet" version="1.0"><defs><clipPath id="e8edbb8d8c"><path d="M 218.316406 38.316406 L 741.816406 38.316406 L 741.816406 561.816406 L 218.316406 561.816406 Z M 218.316406 38.316406 " clip-rule="nonzero"/></clipPath></defs><g clip-path="url(#e8edbb8d8c)"><path fill="#000000" d="M 480.082031 561.832031 C 335.75 561.832031 218.316406 444.414062 218.316406 300.082031 C 218.316406 155.75 335.75 38.316406 480.082031 38.316406 C 624.414062 38.316406 741.847656 155.75 741.847656 300.082031 C 741.847656 444.414062 624.414062 561.832031 480.082031 561.832031 Z M 480.082031 60.125 C 347.777344 60.125 240.125 167.761719 240.125 300.082031 C 240.125 432.402344 347.761719 540.039062 480.082031 540.039062 C 612.402344 540.039062 720.039062 432.402344 720.039062 300.082031 C 720.039062 167.761719 612.382812 60.125 480.082031 60.125 Z M 480.082031 60.125 " fill-opacity="1" fill-rule="nonzero"/></g><path fill="#000000" d="M 481.34375 376.425781 C 415.882812 376.425781 362.613281 322.613281 362.613281 256.460938 C 362.613281 190.3125 415.867188 136.484375 481.34375 136.484375 C 546.808594 136.484375 600.058594 190.3125 600.058594 256.460938 C 600.058594 322.613281 546.792969 376.425781 481.34375 376.425781 Z M 481.34375 158.292969 C 427.914062 158.292969 384.441406 202.324219 384.441406 256.460938 C 384.441406 310.585938 427.914062 354.613281 481.34375 354.613281 C 534.777344 354.613281 578.25 310.585938 578.25 256.460938 C 578.234375 202.324219 534.777344 158.292969 481.34375 158.292969 Z M 481.34375 158.292969 " fill-opacity="1" fill-rule="nonzero"/><path fill="#000000" d="M 644.304688 496.402344 C 640.070312 496.402344 636.050781 493.925781 634.277344 489.789062 C 608.003906 428.511719 546.117188 387.335938 480.277344 387.335938 C 414.457031 387.335938 352.570312 428.511719 326.296875 489.789062 C 323.917969 495.320312 317.5 497.878906 311.972656 495.515625 C 306.441406 493.136719 303.878906 486.71875 306.242188 481.191406 C 335.914062 412.003906 405.855469 365.527344 480.277344 365.527344 C 554.71875 365.527344 624.675781 412.019531 654.332031 481.191406 C 656.710938 486.71875 654.132812 493.136719 648.601562 495.515625 C 647.191406 496.125 645.730469 496.402344 644.304688 496.402344 Z M 644.304688 496.402344 " fill-opacity="1" fill-rule="nonzero"/></svg>