<svg xmlns="http://www.w3.org/2000/svg" xmlns:xlink="http://www.w3.org/1999/xlink" width="1280" zoomAndPan="magnify" viewBox="0 0 960 599.999999" height="800" preserveAspectRatio="xMidYMid meet" version="1.0"><defs><clipPath id="e0a7009fde"><path d="M 353 39.195312 L 607 39.195312 L 607 310 L 353 310 Z M 353 39.195312 " clip-rule="nonzero"/></clipPath><clipPath id="b2220ecaea"><path d="M 243 310 L 717 310 L 717 560.445312 L 243 560.445312 Z M 243 310 " clip-rule="nonzero"/></clipPath></defs><g clip-path="url(#e0a7009fde)"><path fill="#000000" d="M 480.09375 309.574219 C 549.945312 309.574219 606.761719 235.515625 606.761719 165.742188 C 606.761719 95.972656 549.945312 39.195312 480.09375 39.195312 C 410.238281 39.195312 353.414062 95.972656 353.414062 165.742188 C 353.425781 235.511719 410.246094 309.574219 480.09375 309.574219 Z M 480.09375 309.574219 " fill-opacity="1" fill-rule="nonzero"/></g><g clip-path="url(#b2220ecaea)"><path fill="#000000" d="M 575.1875 310.871094 C 550.617188 329.574219 519.964844 340.699219 486.757812 340.699219 L 473.425781 340.699219 C 440.214844 340.699219 409.554688 329.566406 384.988281 310.871094 C 304.757812 323.828125 243.492188 393.292969 243.492188 477.085938 C 243.492188 523.117188 349.417969 560.445312 480.09375 560.445312 C 610.757812 560.445312 716.691406 523.117188 716.691406 477.085938 C 716.691406 393.292969 655.417969 323.828125 575.1875 310.871094 Z M 575.1875 310.871094 " fill-opacity="1" fill-rule="nonzero"/></g></svg>