<svg xmlns="http://www.w3.org/2000/svg" xmlns:xlink="http://www.w3.org/1999/xlink" width="1366" zoomAndPan="magnify" viewBox="0 0 1024.5 576" height="768" preserveAspectRatio="xMidYMid meet" version="1.0"><defs><clipPath id="f953e24e5b"><path d="M 227.160156 24.878906 L 796.882812 24.878906 L 796.882812 551.121094 L 227.160156 551.121094 Z M 227.160156 24.878906 " clip-rule="nonzero"/></clipPath></defs><g clip-path="url(#f953e24e5b)"><path fill="#000000" d="M 533.527344 24.878906 C 388.238281 24.878906 270.464844 142.65625 270.464844 287.945312 C 270.445312 303.933594 271.875 319.789062 274.757812 335.515625 C 277.636719 351.242188 281.917969 366.578125 287.601562 381.523438 L 229.054688 491.304688 C 228.636719 492.082031 228.335938 492.90625 228.152344 493.769531 C 227.964844 494.632812 227.902344 495.507812 227.960938 496.390625 C 228.019531 497.273438 228.199219 498.128906 228.5 498.960938 C 228.800781 499.792969 229.207031 500.566406 229.722656 501.285156 C 230.238281 502.003906 230.84375 502.636719 231.539062 503.183594 C 232.230469 503.730469 232.988281 504.175781 233.804688 504.511719 C 234.621094 504.847656 235.46875 505.066406 236.347656 505.164062 C 237.226562 505.261719 238.101562 505.238281 238.976562 505.09375 L 359.132812 484.90625 C 365.078125 490.1875 371.25 495.183594 377.648438 499.902344 C 384.050781 504.617188 390.652344 509.035156 397.453125 513.152344 C 404.253906 517.269531 411.230469 521.066406 418.378906 524.546875 C 425.527344 528.03125 432.816406 531.179688 440.25 533.996094 C 447.683594 536.816406 455.234375 539.289062 462.890625 541.421875 C 470.550781 543.554688 478.292969 545.332031 486.113281 546.757812 C 493.933594 548.1875 501.804688 549.253906 509.722656 549.964844 C 517.644531 550.675781 525.578125 551.023438 533.527344 551.011719 C 678.816406 551.011719 796.597656 433.230469 796.597656 287.941406 C 796.597656 142.773438 678.695312 24.878906 533.527344 24.878906 Z M 534.308594 482.40625 C 527.972656 482.4375 521.648438 482.164062 515.335938 481.574219 C 509.023438 480.988281 502.757812 480.09375 496.53125 478.894531 C 490.308594 477.691406 484.160156 476.1875 478.082031 474.382812 C 472.007812 472.578125 466.035156 470.480469 460.164062 468.089844 C 454.292969 465.699219 448.554688 463.027344 442.945312 460.074219 C 437.339844 457.117188 431.886719 453.898438 426.597656 450.410156 C 421.304688 446.921875 416.195312 443.179688 411.269531 439.191406 C 406.34375 435.203125 401.625 430.980469 397.117188 426.527344 L 325.132812 439.53125 C 324.269531 439.675781 323.402344 439.699219 322.535156 439.605469 C 321.664062 439.511719 320.824219 439.300781 320.015625 438.972656 C 319.203125 438.644531 318.453125 438.214844 317.761719 437.675781 C 317.070312 437.140625 316.464844 436.523438 315.945312 435.820312 C 315.425781 435.117188 315.011719 434.355469 314.703125 433.539062 C 314.394531 432.71875 314.203125 431.875 314.128906 431.003906 C 314.054688 430.132812 314.097656 429.269531 314.261719 428.410156 C 314.429688 427.550781 314.707031 426.730469 315.097656 425.949219 L 351.449219 356.363281 C 347.210938 345.074219 344.046875 333.488281 341.96875 321.609375 C 339.890625 309.730469 338.925781 297.761719 339.082031 285.703125 C 340.285156 178.921875 426.742188 93.480469 533.527344 93.480469 C 640.929688 93.480469 727.992188 180.546875 727.992188 287.941406 C 727.992188 395.257812 641.617188 481.984375 534.308594 482.40625 Z M 534.308594 482.40625 " fill-opacity="1" fill-rule="nonzero"/></g><path fill="#000000" d="M 506.039062 222.371094 L 497.546875 186.523438 C 497.304688 185.503906 497.011719 184.5 496.664062 183.507812 C 496.316406 182.519531 495.917969 181.550781 495.46875 180.605469 C 495.019531 179.65625 494.519531 178.734375 493.972656 177.839844 C 493.425781 176.945312 492.835938 176.082031 492.195312 175.25 C 491.558594 174.414062 490.878906 173.617188 490.160156 172.859375 C 489.4375 172.097656 488.675781 171.375 487.878906 170.695312 C 487.082031 170.011719 486.25 169.375 485.386719 168.78125 C 484.523438 168.1875 483.628906 167.640625 482.707031 167.144531 C 481.785156 166.644531 480.835938 166.195312 479.867188 165.792969 C 478.898438 165.394531 477.910156 165.046875 476.90625 164.75 C 475.898438 164.453125 474.878906 164.214844 473.847656 164.023438 C 472.816406 163.835938 471.777344 163.703125 470.730469 163.625 C 469.683594 163.542969 468.636719 163.519531 467.589844 163.550781 C 466.542969 163.582031 465.496094 163.667969 464.457031 163.8125 C 463.417969 163.953125 462.390625 164.148438 461.371094 164.398438 C 460.351562 164.648438 459.351562 164.949219 458.363281 165.304688 L 438.785156 172.351562 C 437.199219 172.925781 435.675781 173.625 434.210938 174.453125 C 432.746094 175.28125 431.359375 176.226562 430.054688 177.289062 C 428.75 178.351562 427.542969 179.515625 426.433594 180.78125 C 425.324219 182.050781 424.332031 183.398438 423.449219 184.835938 C 422.570312 186.269531 421.816406 187.765625 421.1875 189.328125 C 420.5625 190.890625 420.070312 192.492188 419.710938 194.140625 C 419.355469 195.785156 419.140625 197.445312 419.0625 199.128906 C 418.988281 200.808594 419.054688 202.484375 419.261719 204.15625 C 426.085938 259.597656 457.492188 393.71875 601.945312 423.1875 C 603.371094 423.480469 604.808594 423.664062 606.261719 423.746094 C 607.714844 423.828125 609.167969 423.800781 610.617188 423.671875 C 612.066406 423.539062 613.496094 423.304688 614.914062 422.964844 C 616.328125 422.625 617.710938 422.183594 619.058594 421.640625 C 620.410156 421.097656 621.714844 420.460938 622.972656 419.726562 C 624.230469 418.996094 625.425781 418.175781 626.5625 417.265625 C 627.703125 416.359375 628.765625 415.375 629.761719 414.3125 C 630.753906 413.25 631.664062 412.117188 632.492188 410.921875 L 643.730469 394.6875 C 644.289062 393.882812 644.804688 393.050781 645.28125 392.195312 C 645.753906 391.339844 646.1875 390.464844 646.578125 389.566406 C 646.964844 388.671875 647.3125 387.757812 647.609375 386.824219 C 647.910156 385.894531 648.164062 384.949219 648.367188 383.992188 C 648.574219 383.035156 648.734375 382.074219 648.847656 381.101562 C 648.957031 380.128906 649.023438 379.152344 649.039062 378.175781 C 649.054688 377.199219 649.023438 376.222656 648.945312 375.246094 C 648.863281 374.269531 648.734375 373.300781 648.5625 372.339844 C 648.386719 371.378906 648.164062 370.425781 647.894531 369.484375 C 647.628906 368.542969 647.3125 367.617188 646.953125 366.707031 C 646.59375 365.800781 646.191406 364.910156 645.746094 364.039062 C 645.296875 363.167969 644.808594 362.320312 644.277344 361.5 C 643.75 360.675781 643.179688 359.882812 642.570312 359.117188 C 641.964844 358.351562 641.320312 357.617188 640.640625 356.914062 C 639.960938 356.210938 639.246094 355.542969 638.5 354.910156 C 637.753906 354.277344 636.980469 353.679688 636.175781 353.125 C 636.113281 353.078125 636.046875 353.035156 635.984375 352.992188 L 611.285156 336.179688 C 609.957031 335.273438 608.566406 334.480469 607.109375 333.800781 C 605.65625 333.121094 604.152344 332.5625 602.609375 332.125 C 601.0625 331.6875 599.492188 331.378906 597.894531 331.195312 C 596.296875 331.011719 594.695312 330.957031 593.09375 331.03125 C 591.488281 331.105469 589.898438 331.308594 588.324219 331.636719 C 586.753906 331.96875 585.21875 332.421875 583.71875 333.003906 C 582.21875 333.582031 580.777344 334.277344 579.390625 335.085938 C 578.003906 335.898438 576.691406 336.816406 575.453125 337.839844 C 574.222656 338.859375 572.917969 339.773438 571.542969 340.582031 C 570.164062 341.390625 568.730469 342.085938 567.242188 342.664062 C 565.753906 343.246094 564.230469 343.703125 562.667969 344.035156 C 561.105469 344.371094 559.527344 344.578125 557.929688 344.65625 C 556.335938 344.738281 554.746094 344.691406 553.15625 344.515625 C 551.570312 344.339844 550.003906 344.039062 548.464844 343.613281 C 546.925781 343.1875 545.429688 342.640625 543.980469 341.972656 C 542.527344 341.304688 541.140625 340.527344 539.8125 339.636719 C 524.789062 329.515625 504.457031 312.730469 491.25 289.460938 C 490.507812 288.164062 489.867188 286.816406 489.328125 285.425781 C 488.792969 284.03125 488.359375 282.605469 488.03125 281.148438 C 487.707031 279.691406 487.492188 278.21875 487.386719 276.730469 C 487.28125 275.238281 487.285156 273.75 487.402344 272.261719 C 487.523438 270.773438 487.75 269.300781 488.085938 267.84375 C 488.425781 266.390625 488.867188 264.96875 489.417969 263.578125 C 489.96875 262.191406 490.617188 260.851562 491.367188 259.558594 C 492.121094 258.269531 492.960938 257.039062 493.894531 255.875 L 500.25 247.976562 C 501.675781 246.203125 502.882812 244.292969 503.871094 242.246094 C 504.859375 240.195312 505.605469 238.0625 506.109375 235.84375 C 506.609375 233.625 506.855469 231.378906 506.84375 229.105469 C 506.832031 226.828125 506.5625 224.585938 506.039062 222.371094 Z M 506.039062 222.371094 " fill-opacity="1" fill-rule="nonzero"/></svg>